<svg class="wp-image-49 style-svg replaced-svg svg-replaced-2" id="svg-replaced-2" xmlns="http://www.w3.org/2000/svg" fill="none" viewBox="0 0 72 72" height="72" width="72">
<circle fill="#E5F4FB" r="36" cy="36" cx="36"></circle>
<path fill="#0095DA" d="M34.096 36.96C35.8661 35.0938 37.7891 34.0199 39.5571 33.0333C42.8541 31.1933 45.576 29.673 45.326 23.3988C44.5403 23.7699 43.7032 24.0067 42.781 24.1606C41.6012 24.3559 40.2785 24.4127 38.7364 24.44C36.7567 24.4749 35.2561 24.9125 34.1767 25.6361C33.3811 26.1687 32.8125 26.8628 32.4469 27.666C32.0737 28.4867 31.9078 29.4253 31.9264 30.4315C31.9624 32.4724 32.7492 34.7828 34.096 36.96ZM43.3747 50.8061H37.6287V46.5738C37.6112 45.2969 37.9626 44.3605 38.7342 43.3521L42.9141 37.8604C43.5231 38.6494 43.2852 39.6491 42.7057 40.3847L40.0209 43.9076C38.8859 45.4595 40.7249 47.1729 42.2397 45.9834L46.8397 42.5096C47.524 41.9595 47.9453 41.3582 48.0741 40.4742L48.658 35.7115C48.7562 34.8537 49.053 34.1934 49.9632 34.0384L49.9589 41.4313C49.9207 42.3644 49.6456 42.9505 49.0705 43.674L43.3747 50.8061ZM49.8825 44.3201L44.0295 51.6486L43.8724 51.845H36.5897V46.5727C36.5897 45.0491 36.9848 43.9305 37.9114 42.7213L42.4427 36.7679L42.757 36.3543L43.1706 36.673C44.6559 37.8156 44.5926 39.5989 43.5297 41.0133L40.8995 44.4642C40.4924 44.9782 41.0064 45.6057 41.6143 45.1539L46.2144 41.6801C46.6651 41.3473 46.9565 40.8998 47.0438 40.3443L47.6266 35.5849C47.8351 33.89 48.7333 32.9602 50.4816 32.9635H51V33.4808L50.9956 41.4509C50.9782 42.5685 50.5678 43.459 49.8835 44.319L49.8825 44.3201ZM26.9694 51.6486L21.1165 44.3201C20.466 43.5016 20.0044 42.5183 20.0044 41.452L20 33.4819V32.9656L20.5173 32.9645C22.3126 32.9602 23.1202 33.8835 23.3723 35.586L23.9551 40.3454C24.0446 40.914 24.3283 41.3353 24.7845 41.6812L29.3846 45.155C29.9335 45.5817 30.5371 45.0448 30.0972 44.4631L27.4692 41.0144C26.3877 39.6033 26.3604 37.8233 27.8283 36.6741L28.2419 36.3554L28.5562 36.769L33.0876 42.7224C34.013 43.9305 34.4081 45.0502 34.4081 46.5738V51.8461H27.1255L26.9683 51.6497L26.9694 51.6486ZM21.9284 43.674C21.3696 42.9712 21.0772 42.3382 21.0401 41.4313L21.0357 34.0384C21.9601 34.1956 22.2275 34.8482 22.341 35.7115L22.9248 40.4742C23.0307 41.3123 23.5011 42.001 24.1592 42.5096L28.7592 45.9834C30.2642 47.1347 32.1032 45.4835 30.978 43.9076L28.2932 40.3847C27.7224 39.6327 27.466 38.6625 28.0848 37.8604L32.2647 43.3521C33.0559 44.3856 33.3702 45.2718 33.3702 46.5738V50.8061H27.6242L21.9284 43.674ZM32.7798 36.7625C26.8341 34.583 27.0163 30.2733 27.2095 25.7179C27.2652 24.4116 27.3208 23.0845 27.2193 21.788L27.1571 21L27.9047 21.2587C29.2296 21.717 30.4257 22.2354 31.4691 22.8258C32.4011 23.353 33.2152 23.9379 33.893 24.5895C35.1 23.8703 36.6934 23.4403 38.7179 23.4043C40.2098 23.3781 41.4855 23.3235 42.6129 23.1369C43.7021 22.9557 44.6505 22.649 45.5258 22.1132L46.2493 21.6701L46.3126 22.517C46.8834 30.1281 43.8112 31.8437 40.0581 33.938C38.2115 34.9683 36.1903 36.0967 34.4157 38.1463L33.9716 38.6593L33.5939 38.095C33.3004 37.6574 33.0275 37.2121 32.7776 36.7614L32.7798 36.7625ZM33.0341 25.2028C32.3596 25.7769 31.8532 26.4666 31.5007 27.2393C31.0642 28.1997 30.8699 29.2878 30.8906 30.4468C30.9179 31.9943 31.3327 33.6718 32.0671 35.3339C27.9254 33.2887 28.0804 29.6195 28.2452 25.7594C28.291 24.679 28.338 23.5843 28.2998 22.5017C29.2733 22.8706 30.1638 23.2777 30.9594 23.7273C31.7517 24.1759 32.448 24.6659 33.0341 25.2028ZM43.342 26.2287C42.6129 29.0662 40.4138 30.2711 38.1744 31.4978C36.9335 32.1777 35.6795 32.8641 34.7235 33.8398L33.9847 33.113C34.4092 32.6808 34.8752 32.3054 35.3652 31.9638C35.9971 31.3046 36.3158 30.6258 36.4489 29.9197C36.5875 29.1797 36.5297 28.3863 36.4096 27.5471L37.4366 27.4008C37.5709 28.3361 37.6331 29.2321 37.4683 30.1107C37.4246 30.3442 37.3646 30.5756 37.286 30.8048C37.417 30.7327 37.549 30.6607 37.68 30.5887C38.2213 30.2918 38.7593 29.9971 39.2701 29.6785C39.8834 28.9123 39.7132 27.5667 39.6128 26.6532L40.6441 26.5441C40.7183 27.2284 40.7936 27.9127 40.7238 28.6013C41.4703 27.917 42.0541 27.0843 42.3401 25.9733L43.343 26.2287H43.342Z" clip-rule="evenodd" fill-rule="evenodd"></path>
</svg>