<svg class="wp-block-cover__image-background wp-image-87 style-svg replaced-svg svg-replaced-0" id="svg-replaced-0" fill="none" viewBox="0 0 1046 718" height="718" width="1046" xmlns="http://www.w3.org/2000/svg">
<circle fill="#E57200" r="104" cy="614" cx="942"></circle>
<path fill="#5E8AB4" d="M27.1851 3.73783C12.394 5.66002 1.94324 19.213 3.86654 34.0126C5.78983 48.8122 19.3576 59.2438 34.1487 57.3216C48.9398 55.3994 59.3906 41.8464 57.4673 27.0468C55.544 12.2473 42.0017 1.81233 27.1851 3.73783Z"></path>
<path fill="#E57200" d="M54.8193 69.4C43.1239 70.9199 34.8594 81.6532 36.3815 93.3656C37.9036 105.078 48.6347 113.326 60.3302 111.806C72.0257 110.286 80.3284 99.5819 78.8041 87.8525C77.2798 76.1231 66.5487 67.8757 54.8193 69.4Z"></path>
<path fill="#f0a604" d="M107.376 14.489C90.5407 16.6768 78.6679 32.0963 80.8546 48.9229C83.0414 65.7495 98.4609 77.6222 115.296 75.4344C132.131 73.2465 143.996 57.8366 141.809 41.0016C139.621 24.1665 124.202 12.3023 107.376 14.489Z"></path>
</svg>