<svg width="56" height="57" viewBox="0 0 56 57" fill="none" xmlns="http://www.w3.org/2000/svg">
<path d="M0.5 28.8889C0.5 13.7011 12.8122 1.38892 28 1.38892C43.1878 1.38892 55.5 13.7011 55.5 28.8889C55.5 44.0767 43.1878 56.3889 28 56.3889C12.8122 56.3889 0.5 44.0767 0.5 28.8889Z" fill="white"/>
<path d="M0.5 28.8889C0.5 13.7011 12.8122 1.38892 28 1.38892C43.1878 1.38892 55.5 13.7011 55.5 28.8889C55.5 44.0767 43.1878 56.3889 28 56.3889C12.8122 56.3889 0.5 44.0767 0.5 28.8889Z" stroke="black"/>
<path d="M36 27.8889H23.83L29.42 22.2989L28 20.8889L20 28.8889L28 36.8889L29.41 35.4789L23.83 29.8889H36V27.8889Z" fill="black"/>
</svg>
