<svg width="85" height="37" viewBox="0 0 85 37" fill="none" xmlns="http://www.w3.org/2000/svg">
<g clip-path="url(#clip0_2_356)">
<g clip-path="url(#clip1_2_356)">
<path d="M74.4113 17.5815L74.3742 17.6187C74.6344 16.9125 75.1547 16.6523 75.6007 16.6523C76.2326 16.6523 76.7901 17.1355 76.7901 17.8417C76.7901 17.9904 76.7901 18.1762 76.7158 18.3992C75.4149 21.7444 72.6644 23.4541 69.9883 23.7143C68.7618 25.7957 66.7547 27.3196 63.8927 27.3196C59.8042 27.3196 57.983 24.086 57.983 20.555C57.983 16.2063 60.7335 11.3744 65.3423 11.3744C66.3458 11.3744 67.2007 11.5975 67.9069 11.8948C69.9883 12.6753 71.3264 15.3886 71.3264 18.2877C71.3264 19.2169 71.252 20.1461 71.029 21.0382C72.4043 20.555 73.7051 19.4399 74.4113 17.5815ZM66.6432 14.4222V14.3851C65.8255 14.3851 65.3423 15.4629 65.3423 16.7638C65.3423 18.6594 66.383 20.4063 68.0184 21.0382C68.2786 20.2205 68.3901 19.2913 68.3901 18.2134C68.3901 16.132 67.7582 14.4222 66.6432 14.4222ZM63.9299 24.6063C64.9706 24.6063 66.0113 24.1603 66.829 23.2311C64.4131 22.1532 62.8892 19.6258 62.8892 17.2098C62.8892 16.3921 63.0379 15.5373 63.2609 14.7939C61.7742 16.0205 60.9193 18.4364 60.9193 20.555C60.9193 23.3054 62.2202 24.6063 63.9299 24.6063Z" fill="black"/>
<path d="M58.5568 17.5815L58.5196 17.6187C58.7798 16.9125 59.2258 16.6152 59.6718 16.6152C60.3037 16.6152 60.9355 17.1727 60.9355 17.8789C60.9355 18.0647 60.8984 18.2134 60.824 18.3992C59.3745 21.9302 57.2187 26.0559 53.7621 28.4718L53.6878 29.2152C53.2789 33.6754 51.0117 36.5001 48.1497 36.5001C45.9939 36.5001 44.7302 35.0134 44.7302 33.2665C44.7302 30.1072 47.9638 28.955 50.9745 27.0223C51.0488 26.2417 51.086 25.3497 51.1231 24.3461C49.6364 25.9815 48.0382 26.6506 46.6258 26.6506C43.801 26.6506 41.4966 24.3461 41.4966 20.8152C41.4966 15.3886 45.0647 11.8205 49.0417 11.8205H49.0789C51.7922 11.8205 54.6913 13.27 54.6913 15.8718C54.6913 16.7267 54.3196 21.3727 54.0223 24.978C56.0293 23.0824 57.7019 19.9975 58.5568 17.5815ZM47.0346 23.9745C48.4099 23.9745 50.2683 23.1196 51.4205 18.9196C51.6063 17.9904 51.7178 17.1727 51.6807 16.2063C51.4577 15.2028 50.6028 14.6081 49.3762 14.6081C46.8488 14.6081 44.4329 17.024 44.4329 20.7037C44.4329 22.9338 45.4736 23.9745 47.0346 23.9745ZM48.447 33.7869H48.4842C49.2647 33.7869 50.1196 33.2665 50.6771 29.9214C49.0417 30.8877 47.5178 31.8541 47.5178 33.0063C47.5178 33.4895 47.8895 33.7869 48.447 33.7869Z" fill="black"/>
<path d="M42.1488 17.5815L42.1117 17.6187C42.3718 16.9125 42.8922 16.6523 43.3382 16.6523C43.9701 16.6523 44.5276 17.1355 44.5276 17.8417C44.5276 17.9904 44.5276 18.1762 44.4533 18.3992C43.1524 21.7444 40.4019 23.4541 37.7258 23.7143C36.4993 25.7957 34.4922 27.3196 31.6302 27.3196C27.5417 27.3196 25.7205 24.086 25.7205 20.555C25.7205 16.2063 28.4709 11.3744 33.0798 11.3744C34.0833 11.3744 34.9382 11.5975 35.6444 11.8948C37.7258 12.6753 39.0639 15.3886 39.0639 18.2877C39.0639 19.2169 38.9895 20.1461 38.7665 21.0382C40.1418 20.555 41.4426 19.4399 42.1488 17.5815ZM34.3807 14.4222V14.3851C33.563 14.3851 33.0798 15.4629 33.0798 16.7638C33.0798 18.6594 34.1205 20.4063 35.7559 21.0382C36.0161 20.2205 36.1276 19.2913 36.1276 18.2134C36.1276 16.132 35.4957 14.4222 34.3807 14.4222ZM31.6674 24.6063C32.7081 24.6063 33.7488 24.1603 34.5665 23.2311C32.1506 22.1532 30.6267 19.6258 30.6267 17.2098C30.6267 16.3921 30.7754 15.5373 30.9984 14.7939C29.5117 16.0205 28.6568 18.4364 28.6568 20.555C28.6568 23.3054 29.9577 24.6063 31.6674 24.6063Z" fill="black"/>
<path d="M27.6096 16.4083C27.0892 16.4083 26.6432 16.6685 26.3458 17.3747C25.3795 19.8278 23.3723 23.9907 21.328 23.9907C20.0408 23.9907 19.0447 23.6996 18.0381 23.4054C17.0102 23.105 15.9714 22.8013 14.6005 22.8013C14.1173 22.8013 13.4482 22.8757 12.8164 22.9872C14.7199 20.3914 15.4311 17.2477 16.1202 11.3054C14.8227 11.2228 13.7673 10.9831 12.998 10.741C12.1764 18.2775 11.2433 21.1511 7.83572 23.9907C7.3897 24.3624 7.16669 24.8828 7.16669 25.4032C7.16669 26.2209 7.8729 26.9271 8.76496 26.9271C9.06231 26.9271 9.39682 26.8156 9.73134 26.6669C11.627 25.812 12.7792 25.589 14.1916 25.589C15.0898 25.589 16.1645 25.8459 17.3152 26.1208C18.6406 26.4376 20.0667 26.7784 21.4396 26.7784C24.4502 26.7784 26.4202 23.8421 28.6131 18.1552C28.7247 17.9694 28.7618 17.7464 28.7618 17.5605C28.7618 16.8543 28.2043 16.4083 27.6096 16.4083Z" fill="black"/>
<path fill-rule="evenodd" clip-rule="evenodd" d="M13.1866 9.20287C13.8597 9.43784 14.9105 9.7114 16.2729 9.79233L16.4959 9.79222C20.6961 9.79222 23.4466 7.1904 23.4466 4.06821C23.4466 2.06109 21.8855 0.5 19.6925 0.5C16.7561 0.5 14.7118 2.50712 13.6711 6.48419C12.3702 5.77798 11.4782 4.51424 11.0321 2.91598C10.8091 2.13543 10.3259 1.65223 9.65687 1.65223C8.83916 1.65223 8.31879 2.28411 8.31879 3.13899C8.31879 5.66648 10.2887 8.08245 13.1879 9.19752L13.1866 9.20287ZM16.719 7.07889C17.2765 4.51424 18.1686 3.28767 19.358 3.28767C19.9899 3.28767 20.3987 3.65936 20.3987 4.3284C20.3987 5.55497 19.0978 7.00455 16.719 7.07889Z" fill="black"/>
</g>
</g>
<defs>
<clipPath id="clip0_2_356">
<rect width="84" height="36" fill="white" transform="translate(0.5 0.5)"/>
</clipPath>
<clipPath id="clip1_2_356">
<rect width="70" height="36" fill="white" transform="translate(7.16669 0.5)"/>
</clipPath>
</defs>
</svg>
