<svg width="85" height="36" viewBox="0 0 85 36" fill="none" xmlns="http://www.w3.org/2000/svg">
<g clip-path="url(#clip0_3_20266)">
<path d="M74.3565 17.0815L74.3194 17.1187C74.5796 16.4125 75.0999 16.1523 75.5459 16.1523C76.1778 16.1523 76.7353 16.6355 76.7353 17.3417C76.7353 17.4904 76.7353 17.6762 76.661 17.8992C75.3601 21.2444 72.6096 22.9541 69.9335 23.2143C68.707 25.2957 66.6999 26.8196 63.8379 26.8196C59.7494 26.8196 57.9282 23.586 57.9282 20.055C57.9282 15.7063 60.6787 10.8744 65.2875 10.8744C66.291 10.8744 67.1459 11.0975 67.8521 11.3948C69.9335 12.1753 71.2716 14.8886 71.2716 17.7877C71.2716 18.7169 71.1972 19.6461 70.9742 20.5382C72.3495 20.055 73.6503 18.9399 74.3565 17.0815ZM66.5884 13.9222V13.8851C65.7707 13.8851 65.2875 14.9629 65.2875 16.2638C65.2875 18.1594 66.3282 19.9063 67.9636 20.5382C68.2238 19.7205 68.3353 18.7913 68.3353 17.7134C68.3353 15.632 67.7034 13.9222 66.5884 13.9222ZM63.8751 24.1063C64.9158 24.1063 65.9565 23.6603 66.7742 22.7311C64.3583 21.6532 62.8344 19.1258 62.8344 16.7098C62.8344 15.8921 62.9831 15.0373 63.2061 14.2939C61.7194 15.5205 60.8645 17.9364 60.8645 20.055C60.8645 22.8054 62.1654 24.1063 63.8751 24.1063Z" fill="black"/>
<path d="M58.5021 17.0815L58.4649 17.1187C58.7251 16.4125 59.1711 16.1152 59.6171 16.1152C60.249 16.1152 60.8808 16.6727 60.8808 17.3789C60.8808 17.5647 60.8437 17.7134 60.7693 17.8992C59.3198 21.4302 57.164 25.5559 53.7074 27.9718L53.6331 28.7152C53.2242 33.1754 50.957 36.0001 48.095 36.0001C45.9392 36.0001 44.6755 34.5134 44.6755 32.7665C44.6755 29.6072 47.9091 28.455 50.9198 26.5223C50.9941 25.7417 51.0313 24.8497 51.0684 23.8461C49.5817 25.4815 47.9835 26.1506 46.5711 26.1506C43.7463 26.1506 41.4419 23.8461 41.4419 20.3152C41.4419 14.8886 45.01 11.3205 48.987 11.3205H49.0242C51.7375 11.3205 54.6366 12.77 54.6366 15.3718C54.6366 16.2267 54.2649 20.8727 53.9676 24.478C55.9746 22.5824 57.6472 19.4975 58.5021 17.0815ZM46.9799 23.4745C48.3552 23.4745 50.2136 22.6196 51.3658 18.4196C51.5516 17.4904 51.6631 16.6727 51.626 15.7063C51.403 14.7028 50.5481 14.1081 49.3215 14.1081C46.7941 14.1081 44.3782 16.524 44.3782 20.2037C44.3782 22.4338 45.4189 23.4745 46.9799 23.4745ZM48.3923 33.2869H48.4295C49.21 33.2869 50.0649 32.7665 50.6224 29.4214C48.987 30.3877 47.4631 31.3541 47.4631 32.5063C47.4631 32.9895 47.8348 33.2869 48.3923 33.2869Z" fill="black"/>
<path d="M42.0938 17.0815L42.0567 17.1187C42.3168 16.4125 42.8372 16.1523 43.2832 16.1523C43.9151 16.1523 44.4726 16.6355 44.4726 17.3417C44.4726 17.4904 44.4726 17.6762 44.3983 17.8992C43.0974 21.2444 40.3469 22.9541 37.6708 23.2143C36.4443 25.2957 34.4372 26.8196 31.5752 26.8196C27.4867 26.8196 25.6655 23.586 25.6655 20.055C25.6655 15.7063 28.4159 10.8744 33.0248 10.8744C34.0283 10.8744 34.8832 11.0975 35.5894 11.3948C37.6708 12.1753 39.0089 14.8886 39.0089 17.7877C39.0089 18.7169 38.9345 19.6461 38.7115 20.5382C40.0868 20.055 41.3876 18.9399 42.0938 17.0815ZM34.3257 13.9222V13.8851C33.508 13.8851 33.0248 14.9629 33.0248 16.2638C33.0248 18.1594 34.0655 19.9063 35.7009 20.5382C35.9611 19.7205 36.0726 18.7913 36.0726 17.7134C36.0726 15.632 35.4407 13.9222 34.3257 13.9222ZM31.6124 24.1063C32.6531 24.1063 33.6938 23.6603 34.5115 22.7311C32.0956 21.6532 30.5717 19.1258 30.5717 16.7098C30.5717 15.8921 30.7204 15.0373 30.9434 14.2939C29.4567 15.5205 28.6018 17.9364 28.6018 20.055C28.6018 22.8054 29.9027 24.1063 31.6124 24.1063Z" fill="black"/>
<path d="M27.5547 15.9083C27.0343 15.9083 26.5883 16.1685 26.2909 16.8747C25.3246 19.3278 23.3174 23.4907 21.2731 23.4907C19.9859 23.4907 18.9898 23.1996 17.9832 22.9054C16.9553 22.605 15.9165 22.3013 14.5456 22.3013C14.0624 22.3013 13.3934 22.3757 12.7615 22.4872C14.6651 19.8914 15.3762 16.7477 16.0653 10.8054C14.7678 10.7228 13.7124 10.4831 12.9431 10.241C12.1215 17.7775 11.1884 20.6511 7.78085 23.4907C7.33483 23.8624 7.11182 24.3828 7.11182 24.9032C7.11182 25.7209 7.81803 26.4271 8.71009 26.4271C9.00744 26.4271 9.34195 26.3156 9.67647 26.1669C11.5721 25.312 12.7243 25.089 14.1367 25.089C15.0349 25.089 16.1096 25.3459 17.2603 25.6208C18.5857 25.9376 20.0118 26.2784 21.3847 26.2784C24.3953 26.2784 26.3653 23.3421 28.5582 17.6552C28.6698 17.4694 28.7069 17.2464 28.7069 17.0605C28.7069 16.3543 28.1494 15.9083 27.5547 15.9083Z" fill="black"/>
<path fill-rule="evenodd" clip-rule="evenodd" d="M13.1315 8.70287C13.8046 8.93784 14.8554 9.2114 16.2178 9.29233L16.4408 9.29222C20.6409 9.29222 23.3914 6.6904 23.3914 3.56821C23.3914 1.56109 21.8303 0 19.6373 0C16.701 0 14.6567 2.00712 13.616 5.98419C12.3151 5.27798 11.423 4.01424 10.977 2.41598C10.754 1.63543 10.2708 1.15223 9.60175 1.15223C8.78404 1.15223 8.26367 1.78411 8.26367 2.63899C8.26367 5.16648 10.2336 7.58245 13.1328 8.69752L13.1315 8.70287ZM16.6638 6.57889C17.2213 4.01424 18.1134 2.78767 19.3028 2.78767C19.9347 2.78767 20.3435 3.15936 20.3435 3.8284C20.3435 5.05497 19.0426 6.50455 16.6638 6.57889Z" fill="black"/>
</g>
<defs>
<clipPath id="clip0_3_20266">
<rect width="70" height="36" fill="white" transform="translate(7.11182)"/>
</clipPath>
</defs>
</svg>
