<svg width="85" height="37" viewBox="0 0 85 37" fill="none" xmlns="http://www.w3.org/2000/svg">
<g clip-path="url(#clip0_2_1247)">
<g clip-path="url(#clip1_2_1247)">
<path d="M74.4113 17.5816L74.3742 17.6188C74.6344 16.9126 75.1547 16.6524 75.6007 16.6524C76.2326 16.6524 76.7901 17.1356 76.7901 17.8418C76.7901 17.9905 76.7901 18.1763 76.7158 18.3993C75.4149 21.7445 72.6644 23.4542 69.9883 23.7144C68.7618 25.7958 66.7547 27.3197 63.8927 27.3197C59.8042 27.3197 57.983 24.0861 57.983 20.5551C57.983 16.2064 60.7335 11.3745 65.3423 11.3745C66.3458 11.3745 67.2007 11.5976 67.9069 11.8949C69.9883 12.6754 71.3264 15.3887 71.3264 18.2878C71.3264 19.217 71.252 20.1462 71.029 21.0383C72.4043 20.5551 73.7051 19.44 74.4113 17.5816ZM66.6432 14.4223V14.3852C65.8255 14.3852 65.3423 15.463 65.3423 16.7639C65.3423 18.6595 66.383 20.4064 68.0184 21.0383C68.2786 20.2206 68.3901 19.2914 68.3901 18.2135C68.3901 16.1321 67.7582 14.4223 66.6432 14.4223ZM63.9299 24.6064C64.9706 24.6064 66.0113 24.1604 66.829 23.2312C64.4131 22.1533 62.8892 19.6259 62.8892 17.2099C62.8892 16.3922 63.0379 15.5374 63.2609 14.794C61.7742 16.0206 60.9193 18.4365 60.9193 20.5551C60.9193 23.3055 62.2202 24.6064 63.9299 24.6064Z" fill="black"/>
<path d="M58.5568 17.5816L58.5196 17.6188C58.7799 16.9126 59.2258 16.6153 59.6718 16.6153C60.3037 16.6153 60.9355 17.1728 60.9355 17.879C60.9355 18.0648 60.8984 18.2135 60.824 18.3993C59.3745 21.9303 57.2188 26.056 53.7621 28.4719L53.6878 29.2153C53.2789 33.6755 51.0117 36.5002 48.1497 36.5002C45.9939 36.5002 44.7302 35.0135 44.7302 33.2666C44.7302 30.1073 47.9638 28.9551 50.9745 27.0224C51.0488 26.2418 51.086 25.3498 51.1231 24.3462C49.6364 25.9816 48.0382 26.6507 46.6258 26.6507C43.801 26.6507 41.4966 24.3462 41.4966 20.8153C41.4966 15.3887 45.0647 11.8206 49.0417 11.8206H49.0789C51.7922 11.8206 54.6913 13.2701 54.6913 15.8719C54.6913 16.7268 54.3196 21.3728 54.0223 24.9781C56.0293 23.0825 57.7019 19.9976 58.5568 17.5816ZM47.0346 23.9746C48.4099 23.9746 50.2683 23.1197 51.4205 18.9197C51.6063 17.9905 51.7178 17.1728 51.6807 16.2064C51.4577 15.2029 50.6028 14.6082 49.3762 14.6082C46.8488 14.6082 44.4329 17.0241 44.4329 20.7038C44.4329 22.9339 45.4736 23.9746 47.0346 23.9746ZM48.447 33.787H48.4842C49.2647 33.787 50.1196 33.2666 50.6771 29.9215C49.0417 30.8878 47.5178 31.8542 47.5178 33.0064C47.5178 33.4896 47.8895 33.787 48.447 33.787Z" fill="black"/>
<path d="M42.1488 17.5816L42.1117 17.6188C42.3718 16.9126 42.8922 16.6524 43.3382 16.6524C43.9701 16.6524 44.5276 17.1356 44.5276 17.8418C44.5276 17.9905 44.5276 18.1763 44.4533 18.3993C43.1524 21.7445 40.4019 23.4542 37.7258 23.7144C36.4993 25.7958 34.4922 27.3197 31.6302 27.3197C27.5417 27.3197 25.7205 24.0861 25.7205 20.5551C25.7205 16.2064 28.4709 11.3745 33.0798 11.3745C34.0833 11.3745 34.9382 11.5976 35.6444 11.8949C37.7258 12.6754 39.0639 15.3887 39.0639 18.2878C39.0639 19.217 38.9895 20.1462 38.7665 21.0383C40.1418 20.5551 41.4426 19.44 42.1488 17.5816ZM34.3807 14.4223V14.3852C33.563 14.3852 33.0798 15.463 33.0798 16.7639C33.0798 18.6595 34.1205 20.4064 35.7559 21.0383C36.0161 20.2206 36.1276 19.2914 36.1276 18.2135C36.1276 16.1321 35.4957 14.4223 34.3807 14.4223ZM31.6674 24.6064C32.7081 24.6064 33.7488 24.1604 34.5665 23.2312C32.1506 22.1533 30.6267 19.6259 30.6267 17.2099C30.6267 16.3922 30.7754 15.5374 30.9984 14.794C29.5117 16.0206 28.6568 18.4365 28.6568 20.5551C28.6568 23.3055 29.9577 24.6064 31.6674 24.6064Z" fill="black"/>
<path d="M27.6096 16.4083C27.0892 16.4083 26.6432 16.6685 26.3458 17.3747C25.3795 19.8278 23.3723 23.9907 21.328 23.9907C20.0408 23.9907 19.0447 23.6996 18.0381 23.4054C17.0102 23.105 15.9714 22.8013 14.6005 22.8013C14.1173 22.8013 13.4482 22.8757 12.8164 22.9872C14.7199 20.3914 15.4311 17.2477 16.1202 11.3054C14.8227 11.2228 13.7673 10.9831 12.998 10.741C12.1764 18.2775 11.2433 21.1511 7.83572 23.9907C7.3897 24.3624 7.16669 24.8828 7.16669 25.4032C7.16669 26.2209 7.8729 26.9271 8.76496 26.9271C9.06231 26.9271 9.39682 26.8156 9.73134 26.6669C11.627 25.812 12.7792 25.589 14.1916 25.589C15.0898 25.589 16.1645 25.8459 17.3152 26.1208C18.6406 26.4376 20.0667 26.7784 21.4396 26.7784C24.4502 26.7784 26.4202 23.8421 28.6131 18.1552C28.7247 17.9694 28.7618 17.7464 28.7618 17.5605C28.7618 16.8543 28.2043 16.4083 27.6096 16.4083Z" fill="black"/>
<path fill-rule="evenodd" clip-rule="evenodd" d="M13.1866 9.20287C13.8597 9.43784 14.9105 9.7114 16.2729 9.79233L16.4959 9.79222C20.6961 9.79222 23.4466 7.1904 23.4466 4.06821C23.4466 2.06109 21.8855 0.5 19.6925 0.5C16.7561 0.5 14.7118 2.50712 13.6711 6.48419C12.3702 5.77798 11.4782 4.51424 11.0321 2.91598C10.8091 2.13543 10.3259 1.65223 9.65687 1.65223C8.83916 1.65223 8.31879 2.28411 8.31879 3.13899C8.31879 5.66648 10.2887 8.08245 13.1879 9.19752L13.1866 9.20287ZM16.719 7.07889C17.2765 4.51424 18.1686 3.28767 19.358 3.28767C19.9899 3.28767 20.3987 3.65936 20.3987 4.3284C20.3987 5.55497 19.0978 7.00455 16.719 7.07889Z" fill="black"/>
</g>
</g>
<defs>
<clipPath id="clip0_2_1247">
<rect width="84" height="36" fill="white" transform="translate(0.5 0.5)"/>
</clipPath>
<clipPath id="clip1_2_1247">
<rect width="70" height="36" fill="white" transform="translate(7.16669 0.5)"/>
</clipPath>
</defs>
</svg>
