<svg width="84" height="37" viewBox="0 0 84 37" fill="none" xmlns="http://www.w3.org/2000/svg">
<g clip-path="url(#clip0_2_2887)">
<g clip-path="url(#clip1_2_2887)">
<path d="M73.9112 17.9705L73.8741 18.0077C74.1343 17.3015 74.6546 17.0413 75.1006 17.0413C75.7325 17.0413 76.29 17.5245 76.29 18.2307C76.29 18.3794 76.29 18.5652 76.2157 18.7882C74.9148 22.1334 72.1643 23.8431 69.4882 24.1033C68.2617 26.1847 66.2546 27.7086 63.3926 27.7086C59.3041 27.7086 57.4829 24.475 57.4829 20.944C57.4829 16.5953 60.2334 11.7634 64.8422 11.7634C65.8457 11.7634 66.7006 11.9865 67.4068 12.2838C69.4882 13.0643 70.8263 15.7776 70.8263 18.6767C70.8263 19.6059 70.7519 20.5351 70.5289 21.4272C71.9042 20.944 73.205 19.8289 73.9112 17.9705ZM66.1431 14.8112V14.7741C65.3254 14.7741 64.8422 15.8519 64.8422 17.1528C64.8422 19.0484 65.8829 20.7953 67.5183 21.4272C67.7785 20.6095 67.89 19.6803 67.89 18.6024C67.89 16.521 67.2581 14.8112 66.1431 14.8112ZM63.4298 24.9953C64.4705 24.9953 65.5112 24.5493 66.3289 23.6201C63.913 22.5422 62.3891 20.0148 62.3891 17.5988C62.3891 16.7811 62.5378 15.9263 62.7608 15.1829C61.2741 16.4095 60.4192 18.8254 60.4192 20.944C60.4192 23.6944 61.7201 24.9953 63.4298 24.9953Z" fill="black"/>
<path d="M58.0568 17.9705L58.0196 18.0077C58.2798 17.3015 58.7258 17.0042 59.1718 17.0042C59.8037 17.0042 60.4355 17.5617 60.4355 18.2679C60.4355 18.4537 60.3984 18.6024 60.324 18.7882C58.8745 22.3192 56.7187 26.4449 53.2621 28.8608L53.1878 29.6042C52.7789 34.0644 50.5117 36.8891 47.6497 36.8891C45.4939 36.8891 44.2302 35.4024 44.2302 33.6555C44.2302 30.4962 47.4638 29.344 50.4745 27.4113C50.5488 26.6307 50.586 25.7387 50.6231 24.7351C49.1364 26.3705 47.5382 27.0396 46.1258 27.0396C43.301 27.0396 40.9966 24.7351 40.9966 21.2042C40.9966 15.7776 44.5647 12.2095 48.5417 12.2095H48.5789C51.2922 12.2095 54.1913 13.659 54.1913 16.2608C54.1913 17.1157 53.8196 21.7617 53.5223 25.367C55.5293 23.4714 57.2019 20.3865 58.0568 17.9705ZM46.5346 24.3635C47.9099 24.3635 49.7683 23.5086 50.9205 19.3086C51.1063 18.3794 51.2178 17.5617 51.1807 16.5953C50.9577 15.5918 50.1028 14.9971 48.8762 14.9971C46.3488 14.9971 43.9329 17.413 43.9329 21.0927C43.9329 23.3228 44.9736 24.3635 46.5346 24.3635ZM47.947 34.1759H47.9842C48.7647 34.1759 49.6196 33.6555 50.1771 30.3104C48.5417 31.2767 47.0178 32.2431 47.0178 33.3953C47.0178 33.8785 47.3895 34.1759 47.947 34.1759Z" fill="black"/>
<path d="M41.6488 17.9705L41.6117 18.0077C41.8718 17.3015 42.3922 17.0413 42.8382 17.0413C43.4701 17.0413 44.0276 17.5245 44.0276 18.2307C44.0276 18.3794 44.0276 18.5652 43.9533 18.7882C42.6524 22.1334 39.9019 23.8431 37.2258 24.1033C35.9993 26.1847 33.9922 27.7086 31.1302 27.7086C27.0417 27.7086 25.2205 24.475 25.2205 20.944C25.2205 16.5953 27.9709 11.7634 32.5798 11.7634C33.5833 11.7634 34.4382 11.9865 35.1444 12.2838C37.2258 13.0643 38.5639 15.7776 38.5639 18.6767C38.5639 19.6059 38.4895 20.5351 38.2665 21.4272C39.6418 20.944 40.9426 19.8289 41.6488 17.9705ZM33.8807 14.8112V14.7741C33.063 14.7741 32.5798 15.8519 32.5798 17.1528C32.5798 19.0484 33.6205 20.7953 35.2559 21.4272C35.5161 20.6095 35.6276 19.6803 35.6276 18.6024C35.6276 16.521 34.9957 14.8112 33.8807 14.8112ZM31.1674 24.9953C32.2081 24.9953 33.2488 24.5493 34.0665 23.6201C31.6506 22.5422 30.1267 20.0148 30.1267 17.5988C30.1267 16.7811 30.2754 15.9263 30.4984 15.1829C29.0117 16.4095 28.1568 18.8254 28.1568 20.944C28.1568 23.6944 29.4577 24.9953 31.1674 24.9953Z" fill="black"/>
<path d="M27.1095 16.7972C26.5891 16.7972 26.1431 17.0574 25.8457 17.7636C24.8794 20.2167 22.8722 24.3796 20.8279 24.3796C19.5407 24.3796 18.5446 24.0885 17.538 23.7943C16.5101 23.4939 15.4713 23.1902 14.1004 23.1902C13.6172 23.1902 12.9482 23.2646 12.3163 23.3761C14.2199 20.7803 14.931 17.6366 15.6201 11.6943C14.3226 11.6117 13.2672 11.372 12.4979 11.1299C11.6763 18.6664 10.7432 21.54 7.33566 24.3796C6.88964 24.7513 6.66663 25.2717 6.66663 25.7921C6.66663 26.6098 7.37284 27.316 8.2649 27.316C8.56225 27.316 8.89676 27.2045 9.23128 27.0558C11.1269 26.2009 12.2791 25.9779 13.6915 25.9779C14.5897 25.9779 15.6645 26.2348 16.8151 26.5097C18.1405 26.8265 19.5666 27.1673 20.9395 27.1673C23.9501 27.1673 25.9201 24.231 28.113 18.5441C28.2246 18.3583 28.2617 18.1353 28.2617 17.9494C28.2617 17.2432 27.7042 16.7972 27.1095 16.7972Z" fill="black"/>
<path fill-rule="evenodd" clip-rule="evenodd" d="M12.6865 9.59179C13.3596 9.82676 14.4104 10.1003 15.7729 10.1812L15.9959 10.1811C20.196 10.1811 22.9465 7.57932 22.9465 4.45713C22.9465 2.45001 21.3854 0.888916 19.1924 0.888916C16.2561 0.888916 14.2118 2.89604 13.1711 6.87311C11.8701 6.1669 10.9781 4.90316 10.5321 3.3049C10.309 2.52435 9.82586 2.04115 9.15681 2.04115C8.3391 2.04115 7.81873 2.67303 7.81873 3.52791C7.81873 6.0554 9.78869 8.47137 12.6879 9.58644L12.6865 9.59179ZM16.2189 7.46781C16.7764 4.90316 17.6685 3.67659 18.8579 3.67659C19.4898 3.67659 19.8986 4.04828 19.8986 4.71732C19.8986 5.94389 18.5977 7.39347 16.2189 7.46781Z" fill="black"/>
</g>
</g>
<defs>
<clipPath id="clip0_2_2887">
<rect width="84" height="36" fill="white" transform="translate(0 0.888916)"/>
</clipPath>
<clipPath id="clip1_2_2887">
<rect width="70" height="36" fill="white" transform="translate(6.66663 0.888916)"/>
</clipPath>
</defs>
</svg>
