<svg width="85" height="36" viewBox="0 0 85 36" fill="none" xmlns="http://www.w3.org/2000/svg">
<g clip-path="url(#clip0_2_1386)">
<path d="M74.4113 17.0816L74.3742 17.1188C74.6344 16.4126 75.1547 16.1524 75.6007 16.1524C76.2326 16.1524 76.7901 16.6356 76.7901 17.3418C76.7901 17.4905 76.7901 17.6763 76.7158 17.8993C75.4149 21.2445 72.6644 22.9542 69.9883 23.2144C68.7618 25.2958 66.7547 26.8197 63.8927 26.8197C59.8042 26.8197 57.983 23.5861 57.983 20.0551C57.983 15.7064 60.7335 10.8745 65.3423 10.8745C66.3458 10.8745 67.2007 11.0976 67.9069 11.3949C69.9883 12.1754 71.3264 14.8887 71.3264 17.7878C71.3264 18.717 71.252 19.6462 71.029 20.5383C72.4043 20.0551 73.7051 18.94 74.4113 17.0816ZM66.6432 13.9223V13.8852C65.8255 13.8852 65.3423 14.963 65.3423 16.2639C65.3423 18.1595 66.383 19.9064 68.0184 20.5383C68.2786 19.7206 68.3901 18.7914 68.3901 17.7135C68.3901 15.6321 67.7582 13.9223 66.6432 13.9223ZM63.9299 24.1064C64.9706 24.1064 66.0113 23.6604 66.829 22.7312C64.4131 21.6533 62.8892 19.1259 62.8892 16.7099C62.8892 15.8922 63.0379 15.0374 63.2609 14.294C61.7742 15.5206 60.9193 17.9365 60.9193 20.0551C60.9193 22.8055 62.2202 24.1064 63.9299 24.1064Z" fill="black"/>
<path d="M58.5568 17.0813L58.5196 17.1185C58.7798 16.4123 59.2258 16.115 59.6718 16.115C60.3037 16.115 60.9355 16.6725 60.9355 17.3787C60.9355 17.5645 60.8984 17.7132 60.824 17.899C59.3745 21.43 57.2187 25.5557 53.7621 27.9716L53.6878 28.715C53.2789 33.1752 51.0117 35.9999 48.1497 35.9999C45.9939 35.9999 44.7302 34.5132 44.7302 32.7663C44.7302 29.607 47.9638 28.4548 50.9745 26.5221C51.0488 25.7415 51.086 24.8495 51.1231 23.8459C49.6364 25.4813 48.0382 26.1504 46.6258 26.1504C43.801 26.1504 41.4966 23.8459 41.4966 20.315C41.4966 14.8884 45.0647 11.3203 49.0417 11.3203H49.0789C51.7922 11.3203 54.6913 12.7698 54.6913 15.3716C54.6913 16.2265 54.3196 20.8725 54.0223 24.4778C56.0293 22.5822 57.7019 19.4973 58.5568 17.0813ZM47.0346 23.4743C48.4099 23.4743 50.2683 22.6194 51.4205 18.4194C51.6063 17.4902 51.7178 16.6725 51.6807 15.7061C51.4577 14.7026 50.6028 14.1079 49.3762 14.1079C46.8488 14.1079 44.4329 16.5238 44.4329 20.2035C44.4329 22.4336 45.4736 23.4743 47.0346 23.4743ZM48.447 33.2867H48.4842C49.2647 33.2867 50.1196 32.7663 50.6771 29.4212C49.0417 30.3875 47.5178 31.3539 47.5178 32.5061C47.5178 32.9893 47.8895 33.2867 48.447 33.2867Z" fill="black"/>
<path d="M42.1488 17.0816L42.1117 17.1188C42.3718 16.4126 42.8922 16.1524 43.3382 16.1524C43.9701 16.1524 44.5276 16.6356 44.5276 17.3418C44.5276 17.4905 44.5276 17.6763 44.4533 17.8993C43.1524 21.2445 40.4019 22.9542 37.7258 23.2144C36.4993 25.2958 34.4922 26.8197 31.6302 26.8197C27.5417 26.8197 25.7205 23.5861 25.7205 20.0551C25.7205 15.7064 28.4709 10.8745 33.0798 10.8745C34.0833 10.8745 34.9382 11.0976 35.6444 11.3949C37.7258 12.1754 39.0639 14.8887 39.0639 17.7878C39.0639 18.717 38.9895 19.6462 38.7665 20.5383C40.1418 20.0551 41.4426 18.94 42.1488 17.0816ZM34.3807 13.9223V13.8852C33.563 13.8852 33.0798 14.963 33.0798 16.2639C33.0798 18.1595 34.1205 19.9064 35.7559 20.5383C36.0161 19.7206 36.1276 18.7914 36.1276 17.7135C36.1276 15.6321 35.4957 13.9223 34.3807 13.9223ZM31.6674 24.1064C32.7081 24.1064 33.7488 23.6604 34.5665 22.7312C32.1506 21.6533 30.6267 19.1259 30.6267 16.7099C30.6267 15.8922 30.7754 15.0374 30.9984 14.294C29.5117 15.5206 28.6568 17.9365 28.6568 20.0551C28.6568 22.8055 29.9577 24.1064 31.6674 24.1064Z" fill="black"/>
<path d="M27.6096 15.9085C27.0892 15.9085 26.6432 16.1687 26.3458 16.8749C25.3795 19.328 23.3723 23.4909 21.328 23.4909C20.0408 23.4909 19.0447 23.1998 18.0381 22.9056C17.0102 22.6052 15.9714 22.3015 14.6005 22.3015C14.1173 22.3015 13.4482 22.3759 12.8164 22.4874C14.7199 19.8916 15.4311 16.7479 16.1202 10.8056C14.8227 10.723 13.7673 10.4833 12.998 10.2412C12.1764 17.7777 11.2433 20.6513 7.83572 23.4909C7.3897 23.8626 7.16669 24.383 7.16669 24.9034C7.16669 25.7211 7.8729 26.4273 8.76496 26.4273C9.06231 26.4273 9.39682 26.3158 9.73134 26.1671C11.627 25.3122 12.7792 25.0892 14.1916 25.0892C15.0898 25.0892 16.1645 25.3461 17.3152 25.621C18.6406 25.9378 20.0667 26.2786 21.4396 26.2786C24.4502 26.2786 26.4202 23.3423 28.6131 17.6554C28.7247 17.4696 28.7618 17.2466 28.7618 17.0607C28.7618 16.3545 28.2043 15.9085 27.6096 15.9085Z" fill="black"/>
<path fill-rule="evenodd" clip-rule="evenodd" d="M13.1866 8.70287C13.8597 8.93784 14.9105 9.2114 16.2729 9.29233L16.4959 9.29222C20.6961 9.29222 23.4466 6.6904 23.4466 3.56821C23.4466 1.56109 21.8855 0 19.6925 0C16.7561 0 14.7118 2.00712 13.6711 5.98419C12.3702 5.27798 11.4782 4.01424 11.0321 2.41598C10.8091 1.63543 10.3259 1.15223 9.65687 1.15223C8.83916 1.15223 8.31879 1.78411 8.31879 2.63899C8.31879 5.16648 10.2887 7.58245 13.1879 8.69752L13.1866 8.70287ZM16.719 6.57889C17.2765 4.01424 18.1686 2.78767 19.358 2.78767C19.9899 2.78767 20.3987 3.15936 20.3987 3.8284C20.3987 5.05497 19.0978 6.50455 16.719 6.57889Z" fill="black"/>
</g>
<defs>
<clipPath id="clip0_2_1386">
<rect width="70" height="36" fill="white" transform="translate(7.16669)"/>
</clipPath>
</defs>
</svg>
