<svg class="wp-image-48 style-svg replaced-svg svg-replaced-0" id="svg-replaced-0" xmlns="http://www.w3.org/2000/svg" fill="none" viewBox="0 0 72 72" height="72" width="72">
<circle fill="#E5F4FB" r="36" cy="36" cx="36"></circle>
<path fill="#0095DA" d="M34.6619 26.3719C34.6805 28.1881 33.7237 29.2157 31.8703 29.3363C30.4473 29.4291 29.9926 29.8338 29.7827 31.3114C29.6772 32.0548 29.6099 32.927 29.5403 33.8409C29.3988 35.6884 29.2457 37.7053 28.7169 39.3707C28.2947 40.7021 27.6337 41.8097 26.5609 42.4453C25.4904 43.0785 24.0534 43.2177 22.0969 42.6053L22.4251 41.5522C24.0488 42.0602 25.1923 41.9744 26.0007 41.4954C26.8044 41.0187 27.3194 40.128 27.665 39.0378C28.1556 37.4895 28.3052 35.5434 28.4409 33.7585C28.5116 32.8307 28.5789 31.9446 28.6914 31.156C28.9767 29.153 29.843 28.3632 31.8007 28.2357C33.4789 28.1266 33.7155 27.1002 33.4929 25.6308C32.6857 24.8468 32.1707 23.6777 31.9306 22.5864C31.5004 20.6321 31.8576 18.4297 33.7898 17.4184C34.8498 16.864 36.1638 16.8594 37.2262 17.4114C39.1723 18.4239 39.5086 20.631 39.0911 22.5667C38.8545 23.6673 38.3396 24.8503 37.5243 25.6378C37.3027 27.1049 37.544 28.1266 39.2175 28.2357C41.1752 28.3632 42.0427 29.1519 42.3269 31.156C42.4394 31.9446 42.5067 32.8307 42.5774 33.7585C42.7131 35.5423 42.8627 37.4895 43.3533 39.0378C43.6989 40.128 44.2139 41.0187 45.0176 41.4954C45.8259 41.9732 46.9695 42.0602 48.5932 41.5522L48.9214 42.6053C46.9648 43.2177 45.5279 43.0785 44.4574 42.4453C43.3835 41.8097 42.7235 40.7021 42.3014 39.3707C41.7737 37.7053 41.6194 35.6896 41.4779 33.8409C41.4083 32.927 41.3411 32.0548 41.2355 31.3114C41.0256 29.8338 40.571 29.4291 39.1479 29.3363C37.2958 29.2157 36.3378 28.1893 36.3564 26.3742C35.8101 26.5598 35.207 26.5598 34.6608 26.3719H34.6619ZM35.5097 49.8412V50.9453C36.4712 50.9453 37.4291 50.987 38.4614 51.0694C39.5214 51.1541 40.6417 51.2805 41.9059 51.4452C43.2478 51.6214 44.5861 51.6852 45.7482 51.5948C46.8384 51.5089 47.7929 51.2863 48.4842 50.8908C50.3097 49.8458 50.6205 47.575 48.6755 46.3804C47.467 45.6381 45.7946 45.2195 44.106 44.7973C43.6398 44.6802 43.1712 44.563 42.7119 44.4389C41.5429 44.1223 40.4701 43.6944 39.6733 43.0344C38.9137 42.4047 38.3952 41.5453 38.2758 40.3345C38.1413 38.9682 38.5924 37.5568 38.9844 36.3309C39.3416 35.2129 39.6548 34.2329 39.5098 33.4175L38.4219 33.6112C38.5217 34.1668 38.248 35.0227 37.936 35.9992C37.5115 37.326 37.0232 38.8534 37.1798 40.4423C37.3306 41.9802 37.9951 43.0773 38.9693 43.8846C39.9064 44.6604 41.1196 45.151 42.4266 45.5048C42.8905 45.63 43.3649 45.7495 43.8369 45.8666C45.4444 46.2691 47.0368 46.6669 48.1003 47.3198C49.318 48.0679 49.0339 49.3019 47.9344 49.9316C47.3928 50.2413 46.5984 50.4199 45.6647 50.493C44.5711 50.5788 43.3104 50.5173 42.0462 50.3526C40.7299 50.1798 39.5875 50.0523 38.5449 49.9676C37.4744 49.8818 36.4886 49.8389 35.5062 49.8389L35.5097 49.8412ZM32.5952 33.6136L31.5073 33.4199C31.3612 34.2352 31.6743 35.2152 32.0327 36.3344C32.4247 37.5603 32.8759 38.9717 32.7413 40.338C32.6393 41.3736 32.2484 42.1507 31.6662 42.7433C31.0631 43.3592 30.2455 43.7953 29.3223 44.127C28.5418 44.4076 27.6592 44.6199 26.7696 44.8344C25.212 45.2102 23.6289 45.5917 22.3416 46.3827C20.4152 47.5657 20.6274 49.9688 22.5677 50.9105C23.5199 51.3733 24.5753 51.5797 25.6771 51.589C26.874 51.5982 28.1242 51.3732 29.3524 50.9917C30.496 50.6368 31.4969 50.1636 32.5047 49.6869C34.5807 48.7058 36.688 47.7107 40.0015 47.8556L40.0491 46.755C36.4619 46.5984 34.2316 47.6515 32.035 48.6895C31.0596 49.15 30.0912 49.6081 29.0289 49.9386C27.8981 50.29 26.7603 50.4965 25.6852 50.4883C24.7423 50.4814 23.847 50.3074 23.0456 49.9177C21.8835 49.3541 21.7431 48.0424 22.9145 47.3233C24.0581 46.6205 25.5542 46.2598 27.0271 45.9049C27.9422 45.6845 28.8479 45.4653 29.6923 45.1626C30.7604 44.7787 31.7184 44.2615 32.4502 43.5157C33.2029 42.748 33.7074 41.7564 33.8362 40.4458C33.9927 38.8569 33.5045 37.3295 33.08 36.0027C32.768 35.0262 32.4943 34.1702 32.594 33.6147L32.5952 33.6136ZM34.3383 24.9117C35.0713 25.5705 35.962 25.5728 36.6938 24.9117C37.3874 24.2855 37.8177 23.2463 38.0137 22.3393C38.3222 20.907 38.1784 19.1523 36.7182 18.3926C35.9701 18.0041 35.0481 18.0041 34.3012 18.3949C32.8457 19.1569 32.6938 20.9151 33.0115 22.3556C33.2099 23.2602 33.6448 24.2889 34.3395 24.9129L34.3383 24.9117Z" clip-rule="evenodd" fill-rule="evenodd"></path>
</svg>