<svg class="wp-image-82 style-svg replaced-svg svg-replaced-4" id="svg-replaced-4" fill="none" viewBox="0 0 72 72" height="72" width="72" xmlns="http://www.w3.org/2000/svg">
<circle fill="#E2ECCC" r="36" cy="36" cx="36"></circle>
<path fill="#597F00" d="M31.3274 46.6546C30.8198 46.8245 30.2809 46.9159 29.7228 46.9342C27.6966 47.0009 25.4101 46.1018 23.4032 44.6026C21.4147 43.1162 19.6853 41.0309 18.7496 38.7078C18.313 37.6237 18.0484 36.4848 18.0108 35.3276L18 35.0114L18.2807 34.8619C19.71 34.0983 21.334 33.7369 22.9913 33.6982C23.1354 33.695 23.2795 33.6939 23.4237 33.695C23.3516 32.6066 23.3957 31.5161 23.5732 30.4621C23.771 29.2898 24.1367 28.1584 24.6917 27.1184L24.8411 26.8377L25.1573 26.8485C25.9919 26.8764 26.8179 27.0087 27.6234 27.2313C28.2967 27.4174 28.957 27.6648 29.598 27.9659C30.9305 25.1869 32.8815 22.7434 35.4153 21.1678L35.6852 21L35.9552 21.1678C38.489 22.7444 40.44 25.1869 41.7725 27.9659C42.4124 27.6658 43.0727 27.4174 43.7471 27.2313C44.5526 27.0087 45.3786 26.8754 46.2131 26.8485L46.5293 26.8377L46.6788 27.1184C47.2349 28.1584 47.5994 29.2898 47.7973 30.4621C47.9759 31.5161 48.02 32.6066 47.9468 33.695C48.0909 33.6939 48.2351 33.695 48.3792 33.6982C50.0365 33.7369 51.6605 34.0983 53.0898 34.8619L53.3705 35.0114L53.3597 35.3276C53.3221 36.4848 53.0575 37.6237 52.6209 38.7078C51.6852 41.0309 49.9558 43.1173 47.9673 44.6026C45.9604 46.1018 43.6739 47.0009 41.6477 46.9342C41.0895 46.9159 40.5507 46.8245 40.0431 46.6546C38.8633 47.5096 37.4135 48 35.6852 48C33.9569 48 32.5072 47.5096 31.3274 46.6546ZM29.1786 28.8973C28.5838 28.6166 27.9719 28.3864 27.3513 28.2154C26.7243 28.0423 26.0866 27.9293 25.4456 27.8842C25.0261 28.7424 24.7433 29.6684 24.5809 30.6299C24.4099 31.6441 24.3722 32.6948 24.4508 33.7445C25.5499 33.8391 26.6426 34.065 27.6826 34.3984C27.788 33.6262 27.9353 32.8497 28.1257 32.0807C28.3935 30.9998 28.7452 29.9297 29.1786 28.8962V28.8973ZM27.5664 35.4384C26.1102 34.9469 24.5411 34.6823 23.0107 34.7178C21.619 34.7501 20.2585 35.0308 19.0475 35.6158C19.1153 36.5375 19.3444 37.4495 19.6982 38.3282C20.5607 40.4695 22.1664 42.401 24.0163 43.783C25.8478 45.1521 27.9041 45.9738 29.6916 45.9146C29.9293 45.9071 30.1626 45.8834 30.3896 45.8426C28.9689 44.3864 28.0827 42.3075 27.7052 39.9446C27.4782 38.5228 27.4341 36.9957 27.5686 35.4384H27.5664ZM42.1908 28.8973C42.6243 29.9308 42.9759 30.9998 43.2437 32.0818C43.4341 32.8507 43.5825 33.6272 43.6868 34.3994C44.7268 34.066 45.8195 33.8402 46.9187 33.7455C46.9972 32.6959 46.9595 31.6441 46.7885 30.631C46.6261 29.6695 46.3433 28.7435 45.9238 27.8852C45.2829 27.9293 44.6451 28.0433 44.0181 28.2165C43.3975 28.3875 42.7856 28.6187 42.1908 28.8983V28.8973ZM43.803 35.4384C43.9374 36.9946 43.8933 38.5228 43.6664 39.9446C43.2889 42.3075 42.4027 44.3864 40.982 45.8426C41.2089 45.8834 41.4423 45.9071 41.68 45.9146C43.4674 45.9738 45.5238 45.1521 47.3553 43.783C49.2051 42.401 50.8108 40.4695 51.6734 38.3282C52.0272 37.4495 52.2552 36.5375 52.324 35.6158C51.113 35.0308 49.7526 34.7501 48.3609 34.7178C46.8305 34.6823 45.2603 34.9469 43.8051 35.4384H43.803ZM42.2521 32.3259C41.2509 28.281 39.0257 24.4147 35.6852 22.2088C32.3448 24.4136 30.1196 28.281 29.1183 32.3259C28.4881 34.8716 28.344 37.4796 28.7118 39.7844C29.0743 42.0494 29.9282 44.0121 31.2994 45.3102C31.9619 45.9372 32.7513 46.4115 33.6698 46.6901C33.4289 46.3481 33.2041 45.9383 33.0008 45.4619C32.0716 43.2765 31.863 40.5232 31.9017 38.1464L32.9223 38.1626C32.8858 40.3899 33.0707 43.0141 33.9408 45.0618C35.0238 47.6085 36.3467 47.6042 37.4275 45.0618C38.0287 43.6486 38.4482 41.517 38.4482 38.6594C38.4482 38.4196 38.4482 38.2507 38.446 38.1636L39.4666 38.1475C39.4709 38.4002 39.4731 38.568 39.4731 38.6594C39.4731 41.6622 39.0182 43.9325 38.3675 45.4619C38.1653 45.9383 37.9395 46.3481 37.6985 46.6901C38.617 46.4115 39.4064 45.9372 40.0689 45.3102C41.4402 44.0121 42.2952 42.0494 42.6565 39.7844C43.0243 37.4796 42.8802 34.8716 42.25 32.3259H42.2521Z" clip-rule="evenodd" fill-rule="evenodd"></path>
</svg>