<svg width="25" height="25" viewBox="0 0 25 25" fill="none" xmlns="http://www.w3.org/2000/svg">
<path fill-rule="evenodd" clip-rule="evenodd" d="M4.66666 3.74268C3.83823 3.74268 3.16666 4.41425 3.16666 5.24268V20.2427C3.16666 21.0711 3.83823 21.7427 4.66666 21.7427H19.6667C20.4951 21.7427 21.1667 21.0711 21.1667 20.2427V5.24268C21.1667 4.41425 20.4951 3.74268 19.6667 3.74268H4.66666ZM8.68742 7.7454C8.69305 8.70165 7.97727 9.29087 7.12789 9.28665C6.32773 9.28243 5.63023 8.6454 5.63445 7.74681C5.63867 6.90165 6.30664 6.22243 7.1743 6.24212C8.05461 6.26181 8.69305 6.90728 8.68742 7.7454ZM12.4464 10.5044H9.92637H9.92496V19.0643H12.5884V18.8646C12.5884 18.4847 12.5881 18.1047 12.5878 17.7246C12.587 16.7108 12.5861 15.6959 12.5913 14.6824C12.5927 14.4363 12.6039 14.1804 12.6672 13.9455C12.9048 13.068 13.6938 12.5013 14.5741 12.6406C15.1394 12.7291 15.5134 13.0568 15.6709 13.5898C15.768 13.923 15.8116 14.2816 15.8158 14.629C15.8272 15.6766 15.8256 16.7242 15.824 17.7719C15.8234 18.1417 15.8228 18.5117 15.8228 18.8815V19.0629H18.4947V18.8576C18.4947 18.4056 18.4945 17.9537 18.4942 17.5018C18.4937 16.3723 18.4931 15.2428 18.4961 14.1129C18.4975 13.6024 18.4427 13.099 18.3175 12.6054C18.1305 11.8713 17.7438 11.2638 17.1152 10.8251C16.6694 10.5129 16.18 10.3118 15.633 10.2893C15.5707 10.2867 15.5079 10.2833 15.4448 10.2799C15.1651 10.2648 14.8808 10.2494 14.6134 10.3033C13.8484 10.4566 13.1763 10.8068 12.6686 11.4241C12.6096 11.4949 12.5519 11.5668 12.4658 11.6741L12.4464 11.6984V10.5044ZM5.8483 19.0671H8.49908V10.51H5.8483V19.0671Z" fill="black"/>
</svg>
