<svg width="25" height="25" viewBox="0 0 25 25" fill="none" xmlns="http://www.w3.org/2000/svg">
<path fill-rule="evenodd" clip-rule="evenodd" d="M16.1667 3.74268H8.16666C5.40524 3.74268 3.16666 5.98126 3.16666 8.74268V16.7427C3.16666 19.5041 5.40524 21.7427 8.16666 21.7427H16.1667C18.9281 21.7427 21.1667 19.5041 21.1667 16.7427V8.74268C21.1667 5.98126 18.9281 3.74268 16.1667 3.74268ZM19.4167 16.7427C19.4112 18.5353 17.9593 19.9872 16.1667 19.9927H8.16666C6.37401 19.9872 4.92215 18.5353 4.91666 16.7427V8.74268C4.92215 6.95003 6.37401 5.49817 8.16666 5.49268H16.1667C17.9593 5.49817 19.4112 6.95003 19.4167 8.74268V16.7427ZM16.9167 8.99268C17.469 8.99268 17.9167 8.54496 17.9167 7.99268C17.9167 7.4404 17.469 6.99268 16.9167 6.99268C16.3644 6.99268 15.9167 7.4404 15.9167 7.99268C15.9167 8.54496 16.3644 8.99268 16.9167 8.99268ZM12.1667 8.24268C9.68138 8.24268 7.66666 10.2574 7.66666 12.7427C7.66666 15.228 9.68138 17.2427 12.1667 17.2427C14.652 17.2427 16.6667 15.228 16.6667 12.7427C16.6694 11.5484 16.1961 10.4022 15.3516 9.55776C14.5071 8.71327 13.361 8.24002 12.1667 8.24268ZM9.41666 12.7427C9.41666 14.2615 10.6479 15.4927 12.1667 15.4927C13.6855 15.4927 14.9167 14.2615 14.9167 12.7427C14.9167 11.2239 13.6855 9.99268 12.1667 9.99268C10.6479 9.99268 9.41666 11.2239 9.41666 12.7427Z" fill="black"/>
</svg>
