<svg width="25" height="24" viewBox="0 0 25 24" fill="none" xmlns="http://www.w3.org/2000/svg">
<path d="M18.1526 12.293C18.0599 12.2 17.9497 12.1263 17.8283 12.076C17.707 12.0257 17.577 11.9998 17.4456 11.9998C17.3143 11.9998 17.1843 12.0257 17.063 12.076C16.9416 12.1263 16.8314 12.2 16.7386 12.293L15.1446 13.887C14.4056 13.667 13.0266 13.167 12.1526 12.293C11.2786 11.419 10.7786 10.04 10.5586 9.30096L12.1526 7.70696C12.2456 7.61417 12.3193 7.50397 12.3696 7.38265C12.42 7.26134 12.4458 7.13129 12.4458 6.99996C12.4458 6.86862 12.42 6.73858 12.3696 6.61726C12.3193 6.49595 12.2456 6.38575 12.1526 6.29296L8.15265 2.29296C8.05986 2.20001 7.94965 2.12627 7.82834 2.07596C7.70702 2.02565 7.57698 1.99976 7.44565 1.99976C7.31431 1.99976 7.18427 2.02565 7.06295 2.07596C6.94164 2.12627 6.83143 2.20001 6.73865 2.29296L4.02665 5.00496C3.64665 5.38496 3.43265 5.90696 3.44065 6.43996C3.46365 7.86396 3.84065 12.81 7.73865 16.708C11.6366 20.606 16.5826 20.982 18.0076 21.006H18.0356C18.5636 21.006 19.0626 20.798 19.4406 20.42L22.1526 17.708C22.2456 17.6152 22.3193 17.505 22.3696 17.3837C22.42 17.2623 22.4458 17.1323 22.4458 17.001C22.4458 16.8696 22.42 16.7396 22.3696 16.6183C22.3193 16.4969 22.2456 16.3867 22.1526 16.294L18.1526 12.293ZM18.0256 19.005C16.7776 18.984 12.5076 18.649 9.15265 15.293C5.78665 11.927 5.46065 7.64196 5.44065 6.41896L7.44565 4.41396L10.0316 6.99996L8.73865 8.29296C8.62111 8.41041 8.53469 8.55529 8.4872 8.71453C8.43971 8.87376 8.43264 9.04231 8.46665 9.20496C8.49065 9.31996 9.07765 12.047 10.7376 13.707C12.3976 15.367 15.1246 15.954 15.2396 15.978C15.4022 16.0129 15.5709 16.0064 15.7303 15.9591C15.8897 15.9117 16.0346 15.825 16.1516 15.707L17.4456 14.414L20.0316 17L18.0256 19.005Z" fill="black"/>
</svg>
