<svg width="25" height="24" viewBox="0 0 25 24" fill="none" xmlns="http://www.w3.org/2000/svg">
<path fill-rule="evenodd" clip-rule="evenodd" d="M16.1123 3.24268H8.1123C5.35088 3.24268 3.1123 5.48126 3.1123 8.24268V16.2427C3.1123 19.0041 5.35088 21.2427 8.1123 21.2427H16.1123C18.8737 21.2427 21.1123 19.0041 21.1123 16.2427V8.24268C21.1123 5.48126 18.8737 3.24268 16.1123 3.24268ZM19.3623 16.2427C19.3568 18.0353 17.9049 19.4872 16.1123 19.4927H8.1123C6.31965 19.4872 4.86779 18.0353 4.8623 16.2427V8.24268C4.86779 6.45003 6.31965 4.99817 8.1123 4.99268H16.1123C17.9049 4.99817 19.3568 6.45003 19.3623 8.24268V16.2427ZM16.8623 8.49268C17.4146 8.49268 17.8623 8.04496 17.8623 7.49268C17.8623 6.9404 17.4146 6.49268 16.8623 6.49268C16.31 6.49268 15.8623 6.9404 15.8623 7.49268C15.8623 8.04496 16.31 8.49268 16.8623 8.49268ZM12.1123 7.74268C9.62702 7.74268 7.6123 9.7574 7.6123 12.2427C7.6123 14.728 9.62702 16.7427 12.1123 16.7427C14.5976 16.7427 16.6123 14.728 16.6123 12.2427C16.615 11.0484 16.1417 9.90225 15.2972 9.05776C14.4527 8.21327 13.3066 7.74002 12.1123 7.74268ZM9.3623 12.2427C9.3623 13.7615 10.5935 14.9927 12.1123 14.9927C13.6311 14.9927 14.8623 13.7615 14.8623 12.2427C14.8623 10.7239 13.6311 9.49268 12.1123 9.49268C10.5935 9.49268 9.3623 10.7239 9.3623 12.2427Z" fill="black"/>
</svg>
