<svg width="25" height="25" viewBox="0 0 25 25" fill="none" xmlns="http://www.w3.org/2000/svg">
<path fill-rule="evenodd" clip-rule="evenodd" d="M5.16675 4.13159C4.33832 4.13159 3.66675 4.80316 3.66675 5.63159V20.6316C3.66675 21.46 4.33832 22.1316 5.16675 22.1316H20.1667C20.9951 22.1316 21.6667 21.46 21.6667 20.6316V5.63159C21.6667 4.80316 20.9951 4.13159 20.1667 4.13159H5.16675ZM9.18751 8.13431C9.19314 9.09056 8.47736 9.67978 7.62798 9.67556C6.82782 9.67134 6.13032 9.03431 6.13454 8.13572C6.13876 7.29056 6.80673 6.61134 7.67439 6.63103C8.5547 6.65072 9.19314 7.29619 9.18751 8.13431ZM12.9464 10.8934H10.4265H10.425V19.4532H13.0884V19.2535C13.0884 18.8736 13.0881 18.4936 13.0878 18.1135C13.087 17.0997 13.0861 16.0848 13.0913 15.0713C13.0927 14.8252 13.1039 14.5693 13.1672 14.3344C13.4048 13.4569 14.1938 12.8902 15.0741 13.0295C15.6394 13.118 16.0134 13.4457 16.1709 13.9787C16.268 14.3119 16.3116 14.6705 16.3158 15.0179C16.3272 16.0655 16.3256 17.1131 16.324 18.1608C16.3234 18.5306 16.3228 18.9006 16.3228 19.2704V19.4518H18.9947V19.2465C18.9947 18.7945 18.9945 18.3426 18.9942 17.8907C18.9937 16.7612 18.9931 15.6317 18.9961 14.5018C18.9975 13.9913 18.9427 13.4879 18.8175 12.9943C18.6305 12.2602 18.2438 11.6527 17.6152 11.214C17.1694 10.9018 16.68 10.7007 16.133 10.6782C16.0707 10.6756 16.0079 10.6722 15.9448 10.6688C15.6651 10.6537 15.3808 10.6383 15.1134 10.6923C14.3484 10.8455 13.6763 11.1957 13.1686 11.813C13.1096 11.8838 13.0519 11.9557 12.9658 12.063L12.9464 12.0873V10.8934ZM6.34839 19.456H8.99917V10.8989H6.34839V19.456Z" fill="black"/>
</svg>
