<svg width="25" height="24" viewBox="0 0 25 24" fill="none" xmlns="http://www.w3.org/2000/svg">
<path d="M21.7056 7.20301C21.5917 6.78041 21.3691 6.39501 21.06 6.08518C20.7509 5.77534 20.366 5.55187 19.9436 5.43701C18.3776 5.00701 12.1126 5.00001 12.1126 5.00001C12.1126 5.00001 5.84863 4.99301 4.28163 5.40401C3.85956 5.52415 3.47546 5.75078 3.1662 6.06214C2.85694 6.3735 2.63292 6.75913 2.51563 7.18201C2.10263 8.74801 2.09863 11.996 2.09863 11.996C2.09863 11.996 2.09463 15.26 2.50463 16.81C2.73463 17.667 3.40963 18.344 4.26763 18.575C5.84963 19.005 12.0976 19.012 12.0976 19.012C12.0976 19.012 18.3626 19.019 19.9286 18.609C20.3511 18.4943 20.7364 18.2714 21.0463 17.9622C21.3562 17.653 21.58 17.2682 21.6956 16.846C22.1096 15.281 22.1126 12.034 22.1126 12.034C22.1126 12.034 22.1326 8.76901 21.7056 7.20301ZM10.1086 15.005L10.1136 9.00501L15.3206 12.01L10.1086 15.005Z" fill="black"/>
</svg>
