<svg width="25" height="24" viewBox="0 0 25 24" fill="none" xmlns="http://www.w3.org/2000/svg">
<path fill-rule="evenodd" clip-rule="evenodd" d="M4.6123 3.24268C3.78387 3.24268 3.1123 3.91425 3.1123 4.74268V19.7427C3.1123 20.5711 3.78387 21.2427 4.6123 21.2427H19.6123C20.4407 21.2427 21.1123 20.5711 21.1123 19.7427V4.74268C21.1123 3.91425 20.4407 3.24268 19.6123 3.24268H4.6123ZM8.63306 7.2454C8.63869 8.20165 7.92291 8.79087 7.07353 8.78665C6.27337 8.78243 5.57587 8.1454 5.58009 7.24681C5.58431 6.40165 6.25228 5.72243 7.11994 5.74212C8.00025 5.76181 8.63869 6.40728 8.63306 7.2454ZM12.392 10.0044H9.87201H9.8706V18.5643H12.534V18.3646C12.534 17.9847 12.5337 17.6047 12.5334 17.2246C12.5326 16.2108 12.5317 15.1959 12.5369 14.1824C12.5383 13.9363 12.5495 13.6804 12.6128 13.4455C12.8504 12.568 13.6394 12.0013 14.5197 12.1406C15.085 12.2291 15.459 12.5568 15.6165 13.0898C15.7136 13.423 15.7572 13.7816 15.7614 14.129C15.7728 15.1766 15.7712 16.2242 15.7696 17.2719C15.769 17.6417 15.7684 18.0117 15.7684 18.3815V18.5629H18.4403V18.3576C18.4403 17.9056 18.4401 17.4537 18.4398 17.0018C18.4393 15.8723 18.4387 14.7428 18.4417 13.6129C18.4431 13.1024 18.3883 12.599 18.2631 12.1054C18.0761 11.3713 17.6894 10.7638 17.0608 10.3251C16.615 10.0129 16.1256 9.81178 15.5786 9.78928C15.5163 9.78669 15.4535 9.7833 15.3904 9.77989C15.1107 9.76477 14.8264 9.74941 14.559 9.80334C13.794 9.95662 13.1219 10.3068 12.6142 10.9241C12.5552 10.9949 12.4975 11.0668 12.4114 11.1741L12.392 11.1984V10.0044ZM5.79394 18.5671H8.44473V10.01H5.79394V18.5671Z" fill="black"/>
</svg>
