<svg width="25" height="25" viewBox="0 0 25 25" fill="none" xmlns="http://www.w3.org/2000/svg">
<path d="M22.2598 8.09192C22.1459 7.66933 21.9233 7.28393 21.6142 6.97409C21.3051 6.66425 20.9202 6.44078 20.4978 6.32592C18.9318 5.89592 12.6668 5.88892 12.6668 5.88892C12.6668 5.88892 6.40283 5.88192 4.83583 6.29292C4.41376 6.41307 4.02966 6.6397 3.7204 6.95106C3.41114 7.26242 3.18712 7.64804 3.06983 8.07092C2.65683 9.63692 2.65283 12.8849 2.65283 12.8849C2.65283 12.8849 2.64883 16.1489 3.05883 17.6989C3.28883 18.5559 3.96383 19.2329 4.82183 19.4639C6.40383 19.8939 12.6518 19.9009 12.6518 19.9009C12.6518 19.9009 18.9168 19.9079 20.4828 19.4979C20.9053 19.3833 21.2906 19.1603 21.6005 18.8511C21.9104 18.5419 22.1342 18.1572 22.2498 17.7349C22.6638 16.1699 22.6668 12.9229 22.6668 12.9229C22.6668 12.9229 22.6868 9.65792 22.2598 8.09192ZM10.6628 15.8939L10.6678 9.89392L15.8748 12.8989L10.6628 15.8939Z" fill="black"/>
</svg>
