<svg width="25" height="24" viewBox="0 0 25 24" fill="none" xmlns="http://www.w3.org/2000/svg">
<path d="M20.4453 4H4.44531C3.34231 4 2.44531 4.897 2.44531 6V18C2.44531 19.103 3.34231 20 4.44531 20H20.4453C21.5483 20 22.4453 19.103 22.4453 18V6C22.4453 4.897 21.5483 4 20.4453 4ZM20.4453 6V6.511L12.4453 12.734L4.44531 6.512V6H20.4453ZM4.44531 18V9.044L11.8313 14.789C12.0064 14.9265 12.2226 15.0013 12.4453 15.0013C12.668 15.0013 12.8842 14.9265 13.0593 14.789L20.4453 9.044L20.4473 18H4.44531Z" fill="black"/>
</svg>
