<svg width="25" height="25" viewBox="0 0 25 25" fill="none" xmlns="http://www.w3.org/2000/svg">
<path fill-rule="evenodd" clip-rule="evenodd" d="M16.6667 4.13159H8.66675C5.90533 4.13159 3.66675 6.37017 3.66675 9.13159V17.1316C3.66675 19.893 5.90533 22.1316 8.66675 22.1316H16.6667C19.4281 22.1316 21.6667 19.893 21.6667 17.1316V9.13159C21.6667 6.37017 19.4281 4.13159 16.6667 4.13159ZM19.9167 17.1316C19.9112 18.9242 18.4593 20.3761 16.6667 20.3816H8.66675C6.8741 20.3761 5.42224 18.9242 5.41675 17.1316V9.13159C5.42224 7.33894 6.8741 5.88708 8.66675 5.88159H16.6667C18.4593 5.88708 19.9112 7.33894 19.9167 9.13159V17.1316ZM17.4167 9.38159C17.969 9.38159 18.4167 8.93387 18.4167 8.38159C18.4167 7.82931 17.969 7.38159 17.4167 7.38159C16.8644 7.38159 16.4167 7.82931 16.4167 8.38159C16.4167 8.93387 16.8644 9.38159 17.4167 9.38159ZM12.6667 8.63159C10.1815 8.63159 8.16675 10.6463 8.16675 13.1316C8.16675 15.6169 10.1815 17.6316 12.6667 17.6316C15.152 17.6316 17.1667 15.6169 17.1667 13.1316C17.1694 11.9373 16.6961 10.7912 15.8516 9.94667C15.0071 9.10218 13.861 8.62893 12.6667 8.63159ZM9.91675 13.1316C9.91675 14.6504 11.1479 15.8816 12.6667 15.8816C14.1855 15.8816 15.4167 14.6504 15.4167 13.1316C15.4167 11.6128 14.1855 10.3816 12.6667 10.3816C11.1479 10.3816 9.91675 11.6128 9.91675 13.1316Z" fill="black"/>
</svg>
