<svg width="25" height="24" viewBox="0 0 25 24" fill="none" xmlns="http://www.w3.org/2000/svg">
<path fill-rule="evenodd" clip-rule="evenodd" d="M5.1665 3.24219C4.33807 3.24219 3.6665 3.91376 3.6665 4.74219V19.7422C3.6665 20.5706 4.33807 21.2422 5.1665 21.2422H20.1665C20.9949 21.2422 21.6665 20.5706 21.6665 19.7422V4.74219C21.6665 3.91376 20.9949 3.24219 20.1665 3.24219H5.1665ZM9.18726 7.24491C9.19289 8.20116 8.47711 8.79038 7.62773 8.78616C6.82757 8.78194 6.13007 8.14491 6.13429 7.24632C6.13851 6.40116 6.80648 5.72194 7.67414 5.74163C8.55445 5.76132 9.19289 6.40679 9.18726 7.24491ZM12.9462 10.0039H10.4262H10.4248V18.5638H13.0882V18.3641C13.0882 17.9842 13.0879 17.6042 13.0876 17.2241C13.0868 16.2103 13.0859 15.1954 13.0911 14.1819C13.0925 13.9358 13.1037 13.6799 13.167 13.445C13.4046 12.5675 14.1936 12.0008 15.0739 12.1401C15.6392 12.2286 16.0132 12.5563 16.1707 13.0893C16.2678 13.4225 16.3114 13.7811 16.3156 14.1285C16.327 15.1761 16.3254 16.2237 16.3238 17.2714C16.3232 17.6412 16.3226 18.0112 16.3226 18.381V18.5624H18.9945V18.3571C18.9945 17.9051 18.9943 17.4532 18.994 17.0013C18.9935 15.8718 18.9929 14.7423 18.9959 13.6124C18.9973 13.1019 18.9425 12.5985 18.8173 12.1049C18.6303 11.3708 18.2436 10.7633 17.615 10.3246C17.1692 10.0124 16.6798 9.81129 16.1328 9.78879C16.0705 9.7862 16.0077 9.78281 15.9446 9.7794C15.6649 9.76428 15.3806 9.74892 15.1132 9.80285C14.3482 9.95613 13.6761 10.3063 13.1684 10.9236C13.1094 10.9944 13.0517 11.0663 12.9656 11.1736L12.9462 11.1979V10.0039ZM6.34814 18.5666H8.99892V10.0095H6.34814V18.5666Z" fill="black"/>
</svg>
