<svg width="25" height="25" viewBox="0 0 25 25" fill="none" xmlns="http://www.w3.org/2000/svg">
<path d="M21.7597 7.70301C21.6457 7.28041 21.4232 6.89501 21.114 6.58518C20.8049 6.27534 20.42 6.05187 19.9977 5.93701C18.4317 5.50701 12.1667 5.50001 12.1667 5.50001C12.1667 5.50001 5.90265 5.49301 4.33565 5.90401C3.91358 6.02415 3.52947 6.25078 3.22022 6.56214C2.91096 6.8735 2.68694 7.25913 2.56965 7.68201C2.15665 9.24801 2.15265 12.496 2.15265 12.496C2.15265 12.496 2.14865 15.76 2.55865 17.31C2.78865 18.167 3.46365 18.844 4.32165 19.075C5.90365 19.505 12.1517 19.512 12.1517 19.512C12.1517 19.512 18.4167 19.519 19.9827 19.109C20.4051 18.9943 20.7904 18.7714 21.1003 18.4622C21.4102 18.153 21.634 17.7682 21.7497 17.346C22.1637 15.781 22.1667 12.534 22.1667 12.534C22.1667 12.534 22.1867 9.26901 21.7597 7.70301ZM10.1627 15.505L10.1677 9.50501L15.3747 12.51L10.1627 15.505Z" fill="black"/>
</svg>
