<svg width="16" height="17" viewBox="0 0 16 17" fill="none" xmlns="http://www.w3.org/2000/svg">
<path fill-rule="evenodd" clip-rule="evenodd" d="M13.82 5.24665L13.7267 5.07998C13.6063 4.87844 13.4365 4.71093 13.2333 4.59331L8.76 2.01331C8.55746 1.89581 8.32753 1.83373 8.09333 1.83331H7.9C7.6658 1.83373 7.43586 1.89581 7.23333 2.01331L2.76 4.59998C2.55798 4.71682 2.39017 4.88463 2.27333 5.08665L2.18 5.25331C2.0625 5.45587 2.00041 5.68581 2 5.91998V11.0866C2.00041 11.3208 2.0625 11.5508 2.18 11.7533L2.27333 11.92C2.39319 12.1196 2.56033 12.2868 2.76 12.4066L7.24 14.9866C7.44153 15.1066 7.67213 15.1688 7.90666 15.1666H8.09333C8.32753 15.1662 8.55746 15.1042 8.76 14.9866L13.2333 12.4C13.4373 12.2858 13.6058 12.1173 13.72 11.9133L13.82 11.7466C13.9361 11.5435 13.9981 11.314 14 11.08V5.91331C13.9996 5.67914 13.9375 5.44921 13.82 5.24665ZM7.9 3.16665H8.09333L12 5.41998L8 7.72665L4 5.41998L7.9 3.16665ZM8.66666 13.5L12.5667 11.2466L12.6667 11.08V6.57331L8.66666 8.88665V13.5Z" fill="black"/>
</svg>
