<svg width="25" height="24" viewBox="0 0 25 24" fill="none" xmlns="http://www.w3.org/2000/svg">
<path d="M22.093 7.20301C21.9791 6.78041 21.7565 6.39501 21.4474 6.08518C21.1383 5.77534 20.7534 5.55187 20.331 5.43701C18.765 5.00701 12.5 5.00001 12.5 5.00001C12.5 5.00001 6.23602 4.99301 4.66902 5.40401C4.24695 5.52415 3.86285 5.75078 3.55359 6.06214C3.24433 6.3735 3.02031 6.75913 2.90302 7.18201C2.49002 8.74801 2.48602 11.996 2.48602 11.996C2.48602 11.996 2.48202 15.26 2.89202 16.81C3.12202 17.667 3.79702 18.344 4.65502 18.575C6.23702 19.005 12.485 19.012 12.485 19.012C12.485 19.012 18.75 19.019 20.316 18.609C20.7385 18.4943 21.1238 18.2714 21.4337 17.9622C21.7436 17.653 21.9674 17.2682 22.083 16.846C22.497 15.281 22.5 12.034 22.5 12.034C22.5 12.034 22.52 8.76901 22.093 7.20301ZM10.496 15.005L10.501 9.00501L15.708 12.01L10.496 15.005Z" fill="black"/>
</svg>
