<svg width="25" height="24" viewBox="0 0 25 24" fill="none" xmlns="http://www.w3.org/2000/svg">
<path d="M12.4454 14C14.6514 14 16.4454 12.206 16.4454 10C16.4454 7.794 14.6514 6 12.4454 6C10.2394 6 8.44537 7.794 8.44537 10C8.44537 12.206 10.2394 14 12.4454 14ZM12.4454 8C13.5484 8 14.4454 8.897 14.4454 10C14.4454 11.103 13.5484 12 12.4454 12C11.3424 12 10.4454 11.103 10.4454 10C10.4454 8.897 11.3424 8 12.4454 8ZM11.8654 21.814C12.0346 21.9349 12.2374 21.9998 12.4454 21.9998C12.6534 21.9998 12.8562 21.9349 13.0254 21.814C13.3294 21.599 20.4744 16.44 20.4454 10C20.4454 5.589 16.8564 2 12.4454 2C8.0344 2 4.4454 5.589 4.4454 9.995C4.4164 16.44 11.5614 21.599 11.8654 21.814ZM12.4454 4C15.7544 4 18.4454 6.691 18.4454 10.005C18.4664 14.443 14.0574 18.428 12.4454 19.735C10.8344 18.427 6.4244 14.441 6.4454 10C6.4454 6.691 9.1364 4 12.4454 4Z" fill="black"/>
<path d="M12.4454 14C14.6514 14 16.4454 12.206 16.4454 10C16.4454 7.794 14.6514 6 12.4454 6C10.2394 6 8.44537 7.794 8.44537 10C8.44537 12.206 10.2394 14 12.4454 14ZM12.4454 8C13.5484 8 14.4454 8.897 14.4454 10C14.4454 11.103 13.5484 12 12.4454 12C11.3424 12 10.4454 11.103 10.4454 10C10.4454 8.897 11.3424 8 12.4454 8ZM11.8654 21.814C12.0346 21.9349 12.2374 21.9998 12.4454 21.9998C12.6534 21.9998 12.8562 21.9349 13.0254 21.814C13.3294 21.599 20.4744 16.44 20.4454 10C20.4454 5.589 16.8564 2 12.4454 2C8.0344 2 4.4454 5.589 4.4454 9.995C4.4164 16.44 11.5614 21.599 11.8654 21.814ZM12.4454 4C15.7544 4 18.4454 6.691 18.4454 10.005C18.4664 14.443 14.0574 18.428 12.4454 19.735C10.8344 18.427 6.4244 14.441 6.4454 10C6.4454 6.691 9.1364 4 12.4454 4Z" fill="black"/>
</svg>
