<svg class="custom-logo style-svg replaced-svg svg-replaced-0" id="svg-replaced-0" fill="none" viewBox="0 0 107 58" aria-labelledby="Site logo" height="58" width="107" xmlns="http://www.w3.org/2000/svg">
<path fill="#84BD00" d="M84.347 31.3615V9.68973C84.347 7.18668 86.3794 5.1543 88.8824 5.1543H100.777C103.28 5.1543 105.313 7.18668 105.313 9.68973V37.8366L105.027 37.6013C103.722 36.5031 101.99 35.904 100.143 35.904H88.8753C86.3722 35.904 84.3398 33.8717 84.3398 31.3686"></path>
<path fill="#3E4542" d="M88.8832 3.5C85.4674 3.5 82.6934 6.27403 82.6934 9.68988V31.3616C82.6934 34.7775 85.4674 37.5515 88.8832 37.5515H100.151L100.714 37.58C103.88 37.8082 105.064 39.9119 105.335 40.4967C105.727 40.3398 106.861 39.7479 106.961 37.9865V9.68988C106.961 6.27403 104.18 3.5 100.771 3.5H88.8761H88.8832ZM84.3478 31.3616V9.68988C84.3478 7.18683 86.3802 5.15444 88.8832 5.15444H100.778C103.281 5.15444 105.314 7.18683 105.314 9.68988V37.8367L105.028 37.6014C103.723 36.5032 101.99 35.9042 100.143 35.9042H88.8761C86.3731 35.9042 84.3407 33.8718 84.3407 31.3687"></path>
<path fill="white" d="M96.7501 9.11233C96.7501 10.1677 95.8943 11.0235 94.8389 11.0235C93.7835 11.0235 92.9277 10.1677 92.9277 9.11233C92.9277 8.05691 93.7835 7.20117 94.8389 7.20117C95.8943 7.20117 96.7501 8.05691 96.7501 9.11233Z"></path>
<path fill="white" d="M94.9312 14.1258C94.9312 14.9173 94.2894 15.5591 93.4978 15.5591C92.7063 15.5591 92.0645 14.9173 92.0645 14.1258C92.0645 13.3342 92.7063 12.6924 93.4978 12.6924C94.2894 12.6924 94.9312 13.3342 94.9312 14.1258Z"></path>
<path fill="white" d="M99.2739 15.4377C99.2739 16.3363 98.5465 17.0708 97.6409 17.0708C96.7352 17.0708 96.0078 16.3434 96.0078 15.4377C96.0078 14.5321 96.7352 13.8047 97.6409 13.8047C98.5465 13.8047 99.2739 14.5321 99.2739 15.4377Z"></path>
<path fill="white" d="M98.3959 19.6521C98.3959 20.3652 97.8183 20.9428 97.1052 20.9428C96.3921 20.9428 95.8145 20.3652 95.8145 19.6521C95.8145 18.939 96.3921 18.3613 97.1052 18.3613C97.8183 18.3613 98.3959 18.939 98.3959 19.6521Z"></path>
<path fill="white" d="M95.6362 17.4698C95.6362 18.0973 95.1299 18.6037 94.4952 18.6037C93.8605 18.6037 93.3613 18.0973 93.3613 17.4698C93.3613 16.8423 93.8676 16.3359 94.4952 16.3359C95.1227 16.3359 95.6362 16.8423 95.6362 17.4698Z"></path>
<path fill="white" d="M90.9859 14.4534C90.9859 14.9098 90.6151 15.2735 90.1658 15.2735C89.7165 15.2735 89.3457 14.9098 89.3457 14.4534C89.3457 13.997 89.7094 13.6333 90.1658 13.6333C90.6222 13.6333 90.9859 13.997 90.9859 14.4534Z"></path>
<path fill="white" d="M92.4706 17.5058C92.4706 18.2332 91.8787 18.8251 91.1513 18.8251C90.4239 18.8251 89.832 18.2332 89.832 17.5058C89.832 16.7784 90.4239 16.1865 91.1513 16.1865C91.8787 16.1865 92.4706 16.7784 92.4706 17.5058Z"></path>
<path fill="white" d="M94.8373 21.0212C94.8373 21.8199 94.1883 22.4759 93.3825 22.4759C92.5767 22.4759 91.9277 21.827 91.9277 21.0212C91.9277 20.2154 92.5767 19.5664 93.3825 19.5664C94.1883 19.5664 94.8373 20.2154 94.8373 21.0212Z"></path>
<path fill="white" d="M100.878 17.9265C100.878 18.3758 100.515 18.7466 100.058 18.7466C99.602 18.7466 99.2383 18.3829 99.2383 17.9265C99.2383 17.4701 99.602 17.1064 100.058 17.1064C100.515 17.1064 100.878 17.4773 100.878 17.9265Z"></path>
<path fill="white" d="M101.478 20.836C101.478 21.4421 100.986 21.9342 100.379 21.9342C99.7733 21.9342 99.2812 21.4421 99.2812 20.836C99.2812 20.2298 99.7733 19.7378 100.379 19.7378C100.986 19.7378 101.478 20.2298 101.478 20.836Z"></path>
<path fill="white" d="M97.72 23.3961C97.72 23.9524 97.2707 24.4016 96.7145 24.4016C96.1582 24.4016 95.709 23.9524 95.709 23.3961C95.709 22.8399 96.1582 22.3906 96.7145 22.3906C97.2707 22.3906 97.72 22.8399 97.72 23.3961Z"></path>
<path fill="white" d="M94.7959 25.2146C94.7959 25.9134 94.2326 26.4768 93.5337 26.4768C92.8349 26.4768 92.2715 25.9134 92.2715 25.2146C92.2715 24.5157 92.8349 23.9595 93.5337 23.9595C94.2326 23.9595 94.7959 24.5228 94.7959 25.2146Z"></path>
<path fill="white" d="M97.5347 27.0398C97.5347 27.4962 97.171 27.8599 96.7146 27.8599C96.2582 27.8599 95.8945 27.4962 95.8945 27.0398C95.8945 26.5834 96.2582 26.2197 96.7146 26.2197C97.171 26.2197 97.5347 26.5905 97.5347 27.0398Z"></path>
<path fill="white" d="M94.9739 29.1295C94.9739 29.6858 94.5246 30.135 93.9684 30.135C93.4122 30.135 92.9629 29.6858 92.9629 29.1295C92.9629 28.5733 93.4122 28.124 93.9684 28.124C94.5246 28.124 94.9739 28.5733 94.9739 29.1295Z"></path>
<path fill="white" d="M95.066 32.7019C95.066 33.1583 94.7023 33.522 94.2459 33.522C93.7895 33.522 93.4258 33.1512 93.4258 32.7019C93.4258 32.2527 93.7895 31.8818 94.2459 31.8818C94.7023 31.8818 95.066 32.2527 95.066 32.7019Z"></path>
<path fill="white" d="M90.9225 21.5418C90.9225 22.0909 90.4733 22.5402 89.9242 22.5402C89.3751 22.5402 88.9258 22.0909 88.9258 21.5418C88.9258 20.9927 89.3751 20.5435 89.9242 20.5435C90.4733 20.5435 90.9225 20.9927 90.9225 21.5418Z"></path>
<path fill="#3E4542" d="M36.3056 37.6157H34.209V54.2814H36.3056V37.6157Z"></path>
<path fill="#3E4542" d="M42.1161 37.6157H40.0195V54.2814H42.1161V37.6157Z"></path>
<path fill="#3E4542" d="M63.3969 45.2816C63.0831 43.1993 61.6283 41.6519 58.5334 41.6519C56.6864 41.6519 55.2602 42.4862 54.654 43.5488C54.0336 42.4933 52.6145 41.6519 50.7746 41.6519H50.7675C47.6726 41.6519 46.2249 43.1922 45.904 45.2816C45.8612 45.5811 45.8398 45.8949 45.8398 46.2087V54.2812H47.9293V46.1374C47.9293 44.3688 48.8777 43.4774 50.7675 43.4774C52.6573 43.4774 53.6057 44.3688 53.6057 46.1374V54.2812H55.7023V46.1374C55.7023 44.3688 56.6507 43.4774 58.5405 43.4774C60.4303 43.4774 61.3787 44.3688 61.3787 46.1374V54.2812H63.4682V46.2087C63.4682 45.8949 63.4468 45.5811 63.3969 45.2816Z"></path>
<path fill="#3E4542" d="M0.0641837 50.9009C0.377957 52.9833 1.83272 54.5307 4.92766 54.5307C6.77465 54.5307 8.20088 53.6964 8.80704 52.6338C9.42745 53.6892 10.8466 54.5307 12.6864 54.5307H12.6935C15.7885 54.5307 17.2361 52.9904 17.557 50.9009C17.5998 50.6014 17.6212 50.2877 17.6212 49.9739V41.9014H15.5318V50.0452C15.5318 51.8137 14.5833 52.7051 12.6935 52.7051C10.8038 52.7051 9.86246 51.8137 9.86246 50.0452V41.9014H7.76588V50.0452C7.76588 51.8137 6.81743 52.7051 4.92766 52.7051C3.0379 52.7051 2.08944 51.8137 2.08944 50.0452V41.9014H0V49.9739C0 50.2877 0.0213925 50.6014 0.071311 50.9009"></path>
<path fill="#3E4542" d="M74.4859 50.0452C74.4859 51.8137 73.5375 52.7051 71.6477 52.7051C69.7579 52.7051 68.8095 51.8137 68.8095 50.0452V41.9014H66.7129V49.9668C66.7129 52.5055 68.1106 54.5236 71.6477 54.5236C75.1848 54.5236 76.5753 52.5055 76.5753 49.9668V41.9014H74.4859V50.0452Z"></path>
<path fill="#3E4542" d="M81.9019 46.1371C81.9019 44.3685 82.8504 43.47 84.7402 43.47C86.6299 43.47 87.5784 44.3614 87.5784 46.1371V54.2809H89.675V46.2155C89.675 43.6768 88.2772 41.6587 84.7402 41.6587C81.2031 41.6587 79.8125 43.6768 79.8125 46.2155V54.2809H81.9019V46.1371Z"></path>
<path fill="#3E4542" d="M30.7277 48.997V46.2087C30.7277 43.67 29.3371 41.6519 25.7929 41.6519C22.2487 41.6519 20.8652 43.67 20.8652 46.2087V49.9668C20.8652 52.5127 22.2558 54.5237 25.7929 54.5237C27.6898 54.5237 28.9663 53.9389 29.7507 53.0119L28.1177 51.8209C27.6542 52.4057 26.884 52.7052 25.7929 52.7052C23.9031 52.7052 22.9547 51.8138 22.9547 50.0381V48.9899H30.7277V48.997ZM25.7929 43.4774C27.6827 43.4774 28.6311 44.3688 28.6311 46.1374V47.1928H22.9547V46.1374C22.9547 44.3688 23.9031 43.4774 25.7929 43.4774Z"></path>
<path fill="#3E4542" d="M102.782 48.997V46.2087C102.782 43.67 101.392 41.6519 97.8476 41.6519C94.3034 41.6519 92.9199 43.67 92.9199 46.2087V49.974C92.9199 52.5198 94.3105 54.5308 97.8476 54.5308C99.7445 54.5308 101.021 53.9461 101.805 53.019L100.172 51.8281C99.7088 52.42 98.9315 52.7123 97.8476 52.7123C95.9578 52.7123 95.0094 51.821 95.0094 50.0453V48.997H102.782ZM97.8476 43.4774C99.7374 43.4774 100.686 44.3688 100.686 46.1374V47.1928H95.0094V46.1374C95.0094 44.3688 95.9578 43.4774 97.8476 43.4774Z"></path>
<path fill="#3E4542" d="M104.886 44.1977C104.244 44.1977 103.73 43.6771 103.73 43.0425C103.73 42.4078 104.244 41.8872 104.886 41.8872C105.528 41.8872 106.041 42.4007 106.041 43.0425C106.041 43.6843 105.528 44.1977 104.886 44.1977ZM104.886 42.1011C104.372 42.1011 103.959 42.5147 103.959 43.0425C103.959 43.5702 104.365 43.9838 104.886 43.9838C105.406 43.9838 105.813 43.5702 105.813 43.0425C105.813 42.5147 105.406 42.1011 104.886 42.1011ZM105.128 43.6629L104.871 43.1708H104.715V43.6629H104.486V42.4149H104.957C105.192 42.4149 105.356 42.5932 105.356 42.8C105.356 42.9711 105.249 43.0924 105.114 43.1352L105.392 43.6629H105.135H105.128ZM104.921 42.6075H104.707V42.9854H104.921C105.043 42.9854 105.128 42.8998 105.128 42.8C105.128 42.7002 105.05 42.6146 104.921 42.6146"></path>
</svg>