<svg width="376" height="361" viewBox="0 0 376 361" fill="none" xmlns="http://www.w3.org/2000/svg">
<rect width="375" height="360" transform="translate(0.5 0.5)" fill="black"/>
<path fill-rule="evenodd" clip-rule="evenodd" d="M108.5 100.5H268.5C279.546 100.5 288.5 109.454 288.5 120.5V240.5C288.5 251.546 279.546 260.5 268.5 260.5H108.5C97.454 260.5 88.5 251.546 88.5 240.5V120.5C88.5 109.454 97.454 100.5 108.5 100.5ZM180.2 212.7L219.1 186.7C221.196 185.334 222.46 183.002 222.46 180.5C222.46 177.998 221.196 175.666 219.1 174.3L180.2 148.3C177.903 146.748 174.938 146.589 172.488 147.887C170.039 149.185 168.505 151.728 168.5 154.5V206.5C168.505 209.272 170.039 211.815 172.488 213.113C174.938 214.411 177.903 214.252 180.2 212.7Z" fill="black"/>
<path fill-rule="evenodd" clip-rule="evenodd" d="M161.833 180.5C161.833 165.772 173.772 153.833 188.5 153.833C195.572 153.833 202.355 156.643 207.356 161.644C212.357 166.645 215.166 173.428 215.166 180.5C215.166 195.228 203.227 207.167 188.5 207.167C173.772 207.167 161.833 195.228 161.833 180.5ZM183.62 191.913L199.166 182.207C199.748 181.834 200.1 181.191 200.1 180.5C200.1 179.809 199.748 179.166 199.166 178.793L183.566 169.087C182.952 168.699 182.176 168.675 181.539 169.024C180.902 169.373 180.504 170.04 180.5 170.767V190.233C180.491 190.977 180.896 191.665 181.551 192.017C182.206 192.37 183.003 192.33 183.62 191.913Z" fill="white"/>
</svg>
