<svg width="1312" height="738" viewBox="0 0 1312 738" fill="none" xmlns="http://www.w3.org/2000/svg">
<rect width="1312" height="738" fill="black"/>
<path fill-rule="evenodd" clip-rule="evenodd" d="M576 289H736C747.046 289 756 297.954 756 309V429C756 440.046 747.046 449 736 449H576C564.954 449 556 440.046 556 429V309C556 297.954 564.954 289 576 289ZM647.7 401.2L686.6 375.2C688.696 373.834 689.96 371.502 689.96 369C689.96 366.498 688.696 364.166 686.6 362.8L647.7 336.8C645.403 335.248 642.438 335.089 639.988 336.387C637.539 337.685 636.005 340.228 636 343V395C636.005 397.772 637.539 400.315 639.988 401.613C642.438 402.911 645.403 402.752 647.7 401.2Z" fill="black"/>
<path fill-rule="evenodd" clip-rule="evenodd" d="M629.333 369C629.333 354.272 641.272 342.333 656 342.333C663.072 342.333 669.855 345.143 674.856 350.144C679.857 355.145 682.666 361.928 682.666 369C682.666 383.728 670.727 395.667 656 395.667C641.272 395.667 629.333 383.728 629.333 369ZM651.12 380.413L666.666 370.707C667.248 370.334 667.6 369.691 667.6 369C667.6 368.309 667.248 367.666 666.666 367.293L651.066 357.587C650.452 357.199 649.676 357.175 649.039 357.524C648.402 357.873 648.004 358.54 648 359.267V378.733C647.991 379.477 648.396 380.165 649.051 380.517C649.706 380.87 650.503 380.83 651.12 380.413Z" fill="white"/>
</svg>
