<svg width="1441" height="704" viewBox="0 0 1441 704" fill="none" xmlns="http://www.w3.org/2000/svg">
<rect width="1440" height="703" transform="translate(0.5 0.5)" fill="black"/>
<path fill-rule="evenodd" clip-rule="evenodd" d="M640.5 272.5H800.5C811.546 272.5 820.5 281.454 820.5 292.5V412.5C820.5 423.546 811.546 432.5 800.5 432.5H640.5C629.454 432.5 620.5 423.546 620.5 412.5V292.5C620.5 281.454 629.454 272.5 640.5 272.5ZM712.2 384.7L751.1 358.7C753.196 357.334 754.46 355.002 754.46 352.5C754.46 349.998 753.196 347.666 751.1 346.3L712.2 320.3C709.903 318.748 706.938 318.589 704.488 319.887C702.039 321.185 700.505 323.728 700.5 326.5V378.5C700.505 381.272 702.039 383.815 704.488 385.113C706.938 386.411 709.903 386.252 712.2 384.7Z" fill="black"/>
<path fill-rule="evenodd" clip-rule="evenodd" d="M693.833 352.5C693.833 337.772 705.772 325.833 720.5 325.833C727.572 325.833 734.355 328.643 739.356 333.644C744.357 338.645 747.166 345.428 747.166 352.5C747.166 367.228 735.227 379.167 720.5 379.167C705.772 379.167 693.833 367.228 693.833 352.5ZM715.62 363.913L731.166 354.207C731.748 353.834 732.1 353.191 732.1 352.5C732.1 351.809 731.748 351.166 731.166 350.793L715.566 341.087C714.952 340.699 714.176 340.676 713.539 341.024C712.902 341.373 712.504 342.04 712.5 342.767V362.233C712.491 362.977 712.896 363.665 713.551 364.017C714.206 364.37 715.003 364.33 715.62 363.913Z" fill="white"/>
</svg>
