<?xml version="1.0" encoding="UTF-8" standalone="no"?>
<!DOCTYPE svg PUBLIC "-//W3C//DTD SVG 1.1//EN" "http://www.w3.org/Graphics/SVG/1.1/DTD/svg11.dtd">
<svg width="100%" height="100%" viewBox="0 0 433 140" version="1.1" xmlns="http://www.w3.org/2000/svg" xmlns:xlink="http://www.w3.org/1999/xlink" xml:space="preserve" xmlns:serif="http://www.serif.com/" style="fill-rule:evenodd;clip-rule:evenodd;stroke-linejoin:round;stroke-miterlimit:2;">
    <path d="M18.35,19.014l0.93,3.055l-0.654,2.492l-0.458,3.063l1.845,1.789l0,-3.677l1.424,-2.045l0.417,-1.622l-3.504,-3.055Zm4.857,21.612l-5.221,0.369l-6.78,-0l-2.575,2.909l3.538,0.587l3.141,-1.953l1.584,-0l-4.94,6.683l-2.521,-0.472l-2.372,1.268l0.202,5.25l2.649,1.246l3.297,2.5l1.663,-1.381l-1.663,-2.183l0,-2.367l-2.677,0.615c0,-0 -0.101,-2.702 -0.061,-2.518c0.041,0.186 2.738,-0 2.738,-0l4.581,-6.561l2.223,-2.08l3.194,-0l0,13.975c1.062,1.304 2.12,2.472 3.173,3.513l-0.731,4.661l-0.715,10.598l1.483,1.234l-0.424,1.111l-2.786,-0.047l-7.182,4.369c-7.126,-4.182 -12.43,-11.165 -16.025,-20.773l0,-61.141l23.207,-0l0,40.588Zm55.111,23.553c-7.722,12.427 -15.478,15.8 -23.222,18.859c-5.062,2 -14.29,2 -14.29,2l0.364,-15.969c0,-0 5.614,-1.254 7.29,-2.149c5.394,-2.876 5.155,-5.741 5.155,-5.741c0,-0 0.374,-2.006 0.481,-4.666l0,-56.475l24.222,-0l0,13.274l-3.281,-0.984l-3.814,-4.104l1.112,3.89l1.152,3.341l1.968,-1.058l2.863,2.063l0,47.719Zm-42.668,20.859l-5.178,-0l-0.321,-8.863l1.591,-1.766l-0.533,-1.105l-2.298,-0.223l0.386,-10.488c2.158,1.668 4.279,2.796 6.342,3.427c0.037,5.009 0.021,14.525 0.011,19.018Zm-9.566,-0l-2.877,-0c-1.097,-0.322 -2.161,-0.694 -3.194,-1.115l1.383,-1.784l5.055,-2.675l-0.367,5.574Z" style="fill:#fff;"/>
    <path d="M99.373,46.513l0.684,-1.565l2.095,-0.431c0,-0 0.957,2.02 0,1.996c-0.957,-0.023 -2.181,1.416 -2.181,1.416l-0.598,-1.416Zm13.834,-40.853l-2.404,-0.141l-0.981,-2.022l-3.542,-1.675l-3.079,-0.48l-3.796,1.234l-4.405,-0.167l-3.904,-0.055l0,6.937l2.157,-0l-0.188,1.95l-1.969,0.322l0,10.506l0.96,1.324l2.233,0.822l2.744,-0l0.917,2.484l-0.464,0.925l1.197,1.789l-2.626,-0l-0.846,0.983l-0.701,-2.772l-0.189,-1.888l-3.225,-0l0,21.935l2.918,-1.158l2.027,-0l-0.453,1.951l-1.634,1.283l-2.858,0.066l0,16.225l2.918,-0l0.932,4.031l0.486,1.667l-1.478,1.078l-1.369,-1.078l0.172,-1.667l-0.695,-2.055l-0.966,-0.064l0,17.088l22.111,-0l0,-42.5l-1.875,2.006l-4.071,0.066l3.634,-2.072l2.312,-1.914l0,-2.84l-0.953,-0.022l-0.324,-1.583l1.277,-0l0,-2.333l-1.757,-2.452l0.874,-1.068l-0.324,-2.702l1.207,-0l0,-3.409l-3.175,-0l-0.291,-1.021l3.466,-0.012l0,-17.522Z" style="fill:#fff;"/>
    <path d="M117.874,2.315l-0,19.754l11.903,-0l0.933,-0.845l1.831,-0l1.657,0.845l2.437,2.146l2.35,1.521c1.58,2.392 2.46,4.42 2.012,5.749l15.695,-0.723l6.018,-6.547l1.386,-2.146l-1.386,-3.055l-1.985,-4.206l-4.787,0.351l2.76,-3.672l-4.335,-4.929l-6.874,-5.216l-5.209,-0l-2.011,1.62l-1.284,-1.62l-3.779,-0l-1.181,0.989l-8.756,0.13l-1.062,-1.119l-0.938,-0l-1.138,0.925l-4.257,0.048Z" style="fill:#fff;"/>
    <path d="M129.367,45.368l3.174,0.854c0,-0 -1.945,-0.343 -2.182,0.291c-0.237,0.635 -0.992,-1.145 -0.992,-1.145Zm12.59,5.811l1.094,-1.077l1.65,0.221l1.745,0.856l-2.025,-0l-1.149,1.063c-0,-0 -1.008,-0.959 -1.315,-1.063Zm-0.598,25.439l4.426,2.846l2.978,1.03l1.702,1.709l1.067,-0.101l-1.941,-2.087l-0.828,-3.44l-0.924,-0.529l-0.48,2.076l-1.898,-0l-1.455,-1.909l-0.761,-1.412l-0.787,1.219l-1.099,0.598Zm22.733,-50.878c-0.001,-0.018 -0,-0.019 0.004,-0.004l-0.004,0.004c0.028,0.445 1.673,10.925 0.004,15.255c-1.735,4.502 -13.949,15.518 -13.949,15.518l-2.831,-0l1.447,2.7l9.159,12.523l-0.335,2.081l-2.248,-0l0.906,1.178l-0.076,2.114l1.855,0.646l-0.35,-2.943l1.768,-0.995l4.654,6.688l-0,4.533l-25.111,-0l-14.778,-23.859l-6.333,-0l-0,-18.641c-0,-0 13.747,0.096 14.667,-0c7.169,-0.745 8.444,-8.692 8.444,-8.692l14.386,-1.365l0.744,3.698l0.394,2.035l1.736,-1.074l-0.075,-5.655l5.922,-5.745Z" style="fill:#fff;"/>
    <path d="M192.954,4.22c-0.082,-0.054 -0.124,-0.065 -0.11,-0.012c0.002,0.009 0.042,0.012 0.11,0.012Zm2.075,1.094c-0.024,-0.534 -0.044,-1.065 -0.039,-1.133c0.009,-0.122 -1.596,0.036 -2.036,0.039c0.357,0.23 1.474,1.238 2.075,1.094Zm0.013,0.287c0.141,-0.209 0.167,-0.33 -0.013,-0.287c0.004,0.096 0.008,0.194 0.013,0.287c-0.44,0.65 -2.004,2.144 -2.004,2.144c0,-0 0.712,0.609 0.728,0.609c0.016,-0 1.343,-1.812 1.326,-1.865c-0.006,-0.023 -0.028,-0.426 -0.05,-0.888Zm-10.522,43.422c0,-0 -0.001,-0 -0.001,0.001l0.001,-0.001Zm0,-0c0.021,0.013 -0.114,2.156 -0.114,2.156l1.246,1.063l1.056,-1.07l-1.056,-1.07l1.493,-2.173l-0.345,-1.279l-2.28,2.373Zm-3.971,11.66c0.439,-0.68 1.42,-1.733 1.42,-1.733c0,-0 0.248,-3.851 0.248,-3.568c0,0.284 0.868,-1.241 0.814,-1.582c-0.054,-0.34 -0.523,-1.558 -0.523,-1.558c0,-0 -1.574,-0.091 -1.267,-0c0.307,0.092 -0.237,3.14 -0.237,3.14l0.221,2.064c0,-0 -0.412,2.205 -0.676,3.237c-0.145,0.224 -0.231,0.406 -0.203,0.496c0.03,0.099 0.107,-0.121 0.203,-0.496Zm-5.231,-60.645l0,66l1.318,-0l1.72,-1.351l0.674,1.351l-0.965,2.508l-1.078,1.523l0.07,1.667l0.744,2.024l1.752,-0.894l0.437,2.863l-2.086,0.755l-1.354,-1.683l-1.232,-1.796l0,9.198l1.335,1.036l0.102,-4.737l1.413,-0l1.531,3.701l1.154,-1.375l1.24,-0.118l0.129,2.907l1.24,1.421l12.523,-0l0,-22.939l-1.653,2.588l-1.003,-2.378l2.656,-2.324l0,-59.947l-4.829,-0l-1.649,1.304l-2.745,1.567l-1.208,0.776l-1.18,-2.343l-0.135,-1.304l-8.921,-0Z" style="fill:#fff;"/>
    <path d="M218.205,0.033l0.288,0.001c-0.178,0.022 -0.282,0.027 -0.286,0.004c-0.001,-0.003 -0.001,-0.004 -0.002,-0.005Zm-8.722,6.189c0.027,-0.016 1.17,-1.611 1.17,-1.611l1.488,0.674l0.157,1.26l-0.874,0.556c0,-0 -1.968,-0.862 -1.941,-0.879Zm-4.583,1.919c0.146,-0.064 2.292,-0.21 2.292,-0.21l0.862,1.36l-1.925,-0c0,-0 -1.375,-1.085 -1.229,-1.15Zm18.968,2.437l2.232,-1.287l1.3,0.987l0.426,1.482l-1.316,0.787l-1.164,-0.152l0.027,-1.26l-1.505,-0.557Zm5.457,5.657l-0.248,-2.815l2,-0.263l0.232,-2.189l0.906,-1.677l2.307,-0l0.248,2.027c0,-0 -1.04,0.015 -0.922,0.895c0.119,0.879 1.332,1.86 1.316,1.882c-0.016,0.021 -1.246,0.517 -1.477,0.517c-0.232,-0 -0.96,1.299 -1.019,1.273c-0.06,-0.028 -1.138,0.527 -1.343,0.527c-0.205,-0 -1.93,-0.744 -2,-0.177Zm-15.626,-6.944l-0.771,3.429l0.626,2.981l0.987,1.062l1.919,0.103l1.283,-1.748l-0.091,-1.326l-1.181,0.443l-1.93,0.21l0,-2.749l1.143,-1.559l-1.985,-0.846Zm15.617,57.786c0.24,-0.609 1.659,-2.776 1.659,-2.39c0,0.453 0.496,-1.856 0.528,-1.883c0.032,-0.026 -0.803,-1.625 -0.803,-1.625l1.121,-1.098l-1.504,-1.294l-2.114,1.267l-0.118,1.148l1.299,1.758l-0.068,4.117c-0.042,0.108 -0.047,0.166 -0.002,0.155l0.002,-0.155Zm9.671,6.74l2.043,-0l-0.205,0.984l-0.016,2.068l-1.062,0.314l-0.89,-1.494l-0.889,-0.888l1.019,-0.984Zm-14.03,-73.053c9.472,1.658 14.449,4.641 17.486,8.527c3.159,4.044 4.184,7.492 3.987,12.778c0,-0 -0.228,4.508 -1.016,6.585c-3.268,8.603 -11.409,11.97 -11.409,11.97c7.436,3.035 12.805,7.378 15.425,13.462c0.574,8.351 0.059,14.447 -1.854,17.65c-5.23,7.756 -12.655,12.217 -22.327,13.302l-3.807,-0l0.119,-1.588l0.35,-2.325l1.283,-1.633l-0.496,-2.659l-2.935,0.61l-11.493,-0.556l-4.556,0.131l-2.729,1.484l0,-13.815c0,-0 7.089,0.072 18.778,-0c10.693,-1.628 6.159,-14.943 0,-14.585l0,-1.078l2.703,-0.001l0.804,-1.094l5.995,-0l-0.323,-2.561l-4.799,0.854l-3.37,0.291l-4.874,0.137l-0.221,2.373l-6.125,1.079l-8.568,-0l0,-16.256l13.556,-0c0,-0 1.358,0.113 5.222,-1.408c3.864,-1.52 1.873,-8.156 0,-10.369c-1.873,-2.213 -5.222,-3.055 -5.222,-3.055l-1.839,-0l-2.038,-1.321l-2.863,1.321l-6.816,-0l0,-5.548l2.147,-0.659l0.83,-1.703l-2.977,-0.168l0,-10.898c-0.098,-0.071 12.684,-0.024 17.212,-0.005c-0.073,0.078 -0.486,1.807 -0.486,1.807l-0.901,1.697l2.953,-0.599l1.727,-1.256c0,-0 2.761,-0.685 2.847,-0.635c0.032,0.017 0.297,-0.113 0.62,-0.283Z" style="fill:#fff;"/>
    <path d="M200.985,85.038l0,-4.478l4.497,-0.756l1.402,1.456l1.445,-0.636l1.806,-2.122l7.765,0.931l1.863,0.074l-0,5.531" style="fill:#fff;"/>
    <path d="M313.026,7.33c0.003,-0.001 0.004,-0.001 0.005,-0c0.001,-0 0.001,0.001 0.001,0.003c-0.001,0.001 -0.002,-0 -0.006,-0.003Zm-27.037,18.395l2.381,-1.51l1.726,-0l0.754,-2.146l3.78,-0l2.496,1.127l-1.984,1.019l-1.601,1.51l-0.906,0.011l-2.539,-0.011l-4.107,-0Zm13.552,-1.51l3.203,-2.146l3.78,-0l-0.378,1.834l-1.504,0.312l0.804,3.409l-2.146,-1.888l-0.658,-1.521l-3.101,-0Zm18.785,3.409l0.804,3.815l0.172,2.407l-0.566,2.333l-1.342,0.824l1.062,1.456l1.299,2.165l0.897,-0l0,-3.567l1.001,-2.141l-1.001,-2.721l0,-1.726l-2.326,-2.845Zm-7.618,15.914l-0.275,4.864l1.677,1.7l0.916,1.077l0.006,-4.529l0,-3.096l-2.324,-0.016Zm0.787,8.704c-0.006,-0.004 -0.012,-0.009 -0.019,-0.013c-0.004,-0.003 -0.009,-0.006 -0.013,-0.007c-0.003,-0.001 -0.006,-0.001 -0.009,-0.001c-0.022,-0 -0.031,0.026 -0.035,0.045l-0.008,0.07l0.033,0.406l-0.267,2.64l-0.744,1.131l0,2.758l0.668,3.322l1.925,-0l0.006,-1.414l1.046,-1.077c0,-0 -0.033,-2.185 -0.103,-2.427c-0.07,-0.242 -0.733,-1.272 -0.949,-1.162c-0.215,0.11 -1.8,0.536 -1.294,-0c0.374,-0.396 -0.146,-2.718 -0.288,-3.771l0.051,-0.5Zm19.342,12.425c0.035,0.044 0.063,0.071 0.082,0.075c0.019,0.003 0.03,-0.014 0.03,-0.055c0,-0.233 -0.043,-0.191 -0.112,-0.02Zm0,-0c-0.5,-0.62 -2.504,-4.925 -2.428,-4.992c0.086,-0.075 -3.079,-0.793 -3.122,-0.819c-0.043,-0.028 -1.434,-1.919 -1.434,-2.343c0,-0.423 -0.625,1.825 -0.625,1.825l-1.575,2.841l-1.001,3.508l2.009,2.251c-0.231,-0.49 1.645,-1.311 1.645,-0.9c0,0.412 0.032,-1.867 0.032,-1.351c0,0.513 0.259,-2.225 0.351,-2.094c0.091,0.132 2.404,0.204 2.404,-0c0,-0.204 2.863,3.849 3.182,3.445c0.208,-0.262 0.432,-1.046 0.562,-1.371Zm-7.232,16.095l1.111,1.19l1.028,-2.488l0,-0.962l-1.233,-2.086l0.016,-1.615l-1.24,-0l-0.189,2.603l-1.445,-1.45l0.512,2.548l1.44,2.26Zm-10.579,-73.432c-0.099,0.023 -1.558,1.199 -1.558,1.961c0,0.793 -2.259,-0 -2.259,-0c0,-0 0.334,1.503 0.307,1.751c-0.027,0.248 -0.118,2.308 -0.205,2.577c-0.086,0.27 -0.881,2.373 -0.881,2.373l-1.135,3.022l1.135,-0l0.941,2.17l0.609,0.885l0.453,5.555l-0.113,3.805l0.113,3.692l-0.394,3.204c0,-0 1.461,2.84 1.472,2.67c0.011,-0.17 1.391,-0.371 1.391,-0.371l0.302,-4.445l-0.916,-2.333l0.728,-1.496l-0.146,-2.937l-0.992,-3.677l-0.394,-1.521l-0.641,-3.721l-1.009,-2.593l0.335,-1.882l1.784,-2.075l1.294,-1.725l2.071,-1.748l4.459,10.023l-4.459,0.108l-1.262,0.517l-0.658,0.95l1.92,0.695l5.334,0.103l6.49,14.486l-1.618,0.831l-1.267,2.44l-0.76,0.371l1.72,1.543l1.343,-0l1.563,-1.543l9.775,21.598l2.944,7.476l0.06,1.667l-1.472,2.081l0.641,0.984l2.642,-0l3.605,10.237c0,-0 -7.239,0.275 -6.991,-0c0.248,-0.274 1.575,-2.357 1.634,-2.787c0.059,-0.429 -1.019,-0.299 -1.019,-0.299l-1.898,-0l-2.07,3.086l-14.434,-0l-6.222,-14.969l-1.779,-0l-0.13,-1.874l-1.445,-0.453l0.103,2.327l-7.134,-0l0.07,-1.654l0.119,-1.466l0.89,-0.911l2.418,-0l-1.922,-1.351l-3.052,-0l0.016,1.351l-0.523,4.031l-15.964,-0l6.556,-18.89l14.889,-0.007l-8.889,-22.467l-23.049,56.333l-16.866,-0l6.379,-12.24l1.849,-3.606l-0.728,-1.58l-1.693,0.441l-8.459,16.985l-5.433,-0l38.555,-85c-0.195,-0.169 17.306,0.406 18.303,0.055c-0.027,-0.073 -0.019,-0.094 0.031,-0.055c0.025,0.02 0.013,0.039 -0.031,0.055c0.283,0.749 4.458,7.067 4.627,7.237Z" style="fill:#fff;"/>
    <path d="M384.195,24.767c-0.059,-0.468 1.216,0.443 1.216,0.079c0,-0.38 0.566,-0.761 0.625,-0.943c0.059,-0.183 0.89,0.943 0.89,0.943l0.744,-0.943l-0.933,-1.834l-1.386,-0l-0.436,0.991l-0.922,0.843l0.202,0.864c0.003,0.023 0.009,0.049 0.019,0.079l-0.019,-0.079Zm-7.772,9.079l1.007,-3.129l0,-2.195l4.126,-0.898l-0.216,1.313c0,-0 -1.229,1.387 -1.316,1.387c-0.086,-0 -0.534,1.131 -0.55,1.26c-0.016,0.131 -1.127,2.262 -1.127,2.262l-1.924,-0Zm26.038,37.953c-0.057,0.005 -0.101,0.002 -0.128,-0.008c-0.028,-0.01 -0.039,-0.029 -0.03,-0.055c0.01,-0.03 0.065,-0.005 0.158,0.063Zm6.345,7.679c-0.023,0.019 -0.041,0.03 -0.053,0.028c-0.011,-0.001 -0.016,-0.014 -0.012,-0.042c0.003,-0.022 0.025,-0.016 0.065,0.014Zm-6.345,-7.679c0.551,-0.045 2.325,-0.776 2.263,-1.73c-0.076,-1.151 0.981,-0 0.981,-0c-0,-0 0.361,-2.467 0.394,-3.131c0.032,-0.663 -2.044,-2.196 -2.044,-2.196l-2.119,-0.216l1.839,-2.826l1.871,-2.273l0.205,-2.019l-5.052,-0l-0.55,-4.127l1.515,-2.102l0.016,-1.969l-2.674,-0.205l-2.243,1.097l-1.284,-0l1.952,1.07l-0.07,5.341l1.343,-0.053l0.539,4.719l-0.146,6.745l-11.425,-15.682l1.181,-0.021l1.839,-1.049l1.617,-1.07l2.178,-0l-2.48,-1.576l-4,1.576l-2.438,-0l-8.239,-9.478l-8.772,-13l-2.949,-0l-2.189,1.789l5.004,6.766l0.091,2.797l-1.811,0.561l-1.472,-2.15l-2.572,-1.208l-3.02,-0l2.028,1.348l2.555,0.285l0.89,2.812l-0.701,2.914l-0.566,3.112l-3.548,4.522l-1.358,1.07l-4.166,-0l-0,-52.204l10.986,-0.031l0.318,0.943l-1.035,1.762l-1.661,2.313l-0.555,2.304l1.035,0.004l1.019,-0l1.537,-2.178l1.283,-3.1l9.629,0.103l13.642,16.856l-0.232,4.889l2.523,-0l38.844,47.833l-0,13.302c-0,-0 -18.959,0.048 -18.959,-0c-0,-0.044 -3.885,-5.144 -4.442,-5.56c0.235,-0.199 1.004,-1.337 0.957,-1.102c-0.056,0.284 1.458,-0 1.458,-0c-0,-0 1.17,-2.93 1.213,-3.575c0.043,-0.644 1.968,-0.984 1.968,-0.984c-0,-0 0.162,-1.898 0.264,-2.081c0.103,-0.185 -2.917,-1.667 -2.917,-1.667l-1.986,-0l-0,1.667l-1.038,3.065l-0.976,2.451c-0,-0 -4.39,-4.789 -5.288,-5.453Z" style="fill:#fff;"/>
    <path d="M366.175,73.791l0,4.585l2.09,1.13l1.094,2.446l0.178,-3.576l-1.418,-2.385l-0.129,-1.19l-0.572,-0.988l-1.243,-0.022Zm5.827,-12.094c0.065,-0.159 1.8,-0.329 1.811,0.003c0.011,0.332 0.679,0.053 0.652,0.893c-0.027,0.841 -0.027,1.679 -0.027,2.149c0,0.47 -1.461,2.314 -1.153,2.196c0.307,-0.118 3.197,-0.285 3.138,-0c-0.06,0.285 1.081,-0.351 1.007,-0c-0.075,0.35 0.101,18.383 0,18.1c-0.102,-0.281 -9.003,0.191 -9.063,-0c-0.059,-0.189 -0.129,-2.044 -0.145,-1.979c-0.016,0.064 -0.777,-1.215 -0.804,-0.856c-0.027,0.36 -0.609,1.88 -0.625,1.918c-0.016,0.038 -1.504,-0.344 -1.504,-0.324c0,0.023 -1.639,0.367 -1.65,0.352c-0.011,-0.018 0.215,0.955 0.205,0.911c-0.011,-0.043 -8.822,-0.165 -8.97,-0.022l0,-29.656l3.589,-0l0.291,2.026l1.181,3.771l0.992,-2.804l0.717,-1.915l-0.351,-3.282l2.755,-3.076l1.65,-0l-0.248,7.306l0.378,12.661l2.922,-0l0.189,-5.543l-1.402,-0l-0.324,-2.826l-0.129,-5.187l0.275,-5.334c0,-0 -0.022,-4.037 -0.011,-3.819c0.011,0.216 2.583,-6.736 2.583,-6.736l7.499,6.736l0,2.742c0,-0 -7.052,-0.326 -7.079,-0c-0.027,0.326 -0.598,2.14 -0.598,2.14c0,-0 2.507,1.335 2.583,1.335c0.075,-0 2.162,-1.71 2.162,-1.335c0,0.308 2.298,0.185 2.857,0.058c0.022,-0.058 0.047,-0.087 0.075,-0.079c0.087,0.024 0.048,0.053 -0.075,0.079c-0.355,0.969 0.075,10.293 0.075,10.293l-1.007,-0l-0.831,-2.232c0,-0 -1.137,-1.338 -1.137,-1.57c0,-0.231 0.399,-1.495 0.102,-1.383c-0.297,0.111 -1.866,1.621 -1.839,1.631c0.026,0.01 -0.666,2.485 -0.716,2.658l0,0.001c-0.001,0.002 -0.001,0.002 -0.002,0.006l0,0.001l0.002,-0.008Z" style="fill:#fff;"/>
    <path d="M411.423,19.014l2.327,-1.361l0.976,1.361l-3.303,-0Zm-1.66,-18.976l0,36.141l8.71,11.181l2.82,0.938l0.933,-1.785l2.043,0.847l3.688,-0l0.879,1.198l-1.025,2.621l-5.823,-0l10.219,11.676l0,-58.53l-1.376,0.868l-1.693,0.194l-0.496,-1.456l0.701,-1.423l1.283,-1.245l0.205,-1.256l-21.068,0.031Z" style="fill:#fff;"/>
    <path d="M90.315,138.688l7.136,-35.64l6.953,-0l7.113,35.64l-6.025,-0l-1.401,-8.226l-6.215,-0l-1.466,8.226l-6.095,-0Zm8.244,-12.381l4.827,-0l-2.425,-14.947l-2.402,14.947Z" style="fill:#fff;fill-rule:nonzero;"/>
    <path d="M122.735,139.152c-2.145,-0 -3.933,-0.417 -5.365,-1.252c-1.432,-0.834 -2.516,-2.055 -3.25,-3.663c-0.734,-1.608 -1.152,-3.59 -1.254,-5.946l5.603,-1.096c0.058,1.397 0.226,2.622 0.504,3.674c0.277,1.052 0.704,1.865 1.279,2.439c0.575,0.574 1.334,0.861 2.278,0.861c1.048,-0 1.797,-0.317 2.245,-0.953c0.448,-0.635 0.672,-1.439 0.672,-2.409c0,-1.538 -0.359,-2.806 -1.078,-3.804c-0.718,-0.997 -1.657,-2.002 -2.817,-3.015l-4.485,-3.94c-1.264,-1.087 -2.27,-2.3 -3.016,-3.639c-0.747,-1.338 -1.12,-2.993 -1.12,-4.964c0,-2.823 0.824,-4.994 2.471,-6.515c1.648,-1.52 3.891,-2.281 6.729,-2.281c1.666,-0 3.056,0.256 4.172,0.766c1.116,0.51 2.004,1.219 2.662,2.125c0.658,0.907 1.147,1.94 1.466,3.098c0.319,1.159 0.522,2.387 0.608,3.685l-5.541,0.984c-0.058,-1.113 -0.177,-2.107 -0.358,-2.984c-0.18,-0.877 -0.514,-1.57 -1,-2.081c-0.486,-0.51 -1.201,-0.766 -2.145,-0.766c-0.975,-0 -1.716,0.319 -2.224,0.956c-0.507,0.638 -0.761,1.428 -0.761,2.37c0,1.207 0.251,2.196 0.754,2.968c0.503,0.772 1.218,1.57 2.146,2.394l4.438,3.895c1.455,1.249 2.708,2.699 3.757,4.349c1.049,1.651 1.574,3.652 1.574,6.003c0,1.714 -0.374,3.232 -1.123,4.554c-0.748,1.321 -1.791,2.349 -3.127,3.085c-1.337,0.735 -2.901,1.102 -4.694,1.102Z" style="fill:#fff;fill-rule:nonzero;"/>
    <path d="M143.547,139.152c-2.145,-0 -3.933,-0.417 -5.365,-1.252c-1.432,-0.834 -2.516,-2.055 -3.25,-3.663c-0.734,-1.608 -1.152,-3.59 -1.254,-5.946l5.603,-1.096c0.058,1.397 0.226,2.622 0.504,3.674c0.277,1.052 0.704,1.865 1.279,2.439c0.575,0.574 1.334,0.861 2.278,0.861c1.048,-0 1.797,-0.317 2.245,-0.953c0.448,-0.635 0.672,-1.439 0.672,-2.409c0,-1.538 -0.359,-2.806 -1.078,-3.804c-0.718,-0.997 -1.657,-2.002 -2.817,-3.015l-4.485,-3.94c-1.264,-1.087 -2.27,-2.3 -3.016,-3.639c-0.747,-1.338 -1.12,-2.993 -1.12,-4.964c0,-2.823 0.824,-4.994 2.471,-6.515c1.648,-1.52 3.891,-2.281 6.729,-2.281c1.666,-0 3.056,0.256 4.172,0.766c1.116,0.51 2.004,1.219 2.662,2.125c0.658,0.907 1.147,1.94 1.466,3.098c0.319,1.159 0.522,2.387 0.608,3.685l-5.541,0.984c-0.058,-1.113 -0.177,-2.107 -0.358,-2.984c-0.18,-0.877 -0.514,-1.57 -1,-2.081c-0.486,-0.51 -1.201,-0.766 -2.145,-0.766c-0.975,-0 -1.716,0.319 -2.224,0.956c-0.507,0.638 -0.761,1.428 -0.761,2.37c0,1.207 0.251,2.196 0.754,2.968c0.503,0.772 1.218,1.57 2.146,2.394l4.438,3.895c1.455,1.249 2.708,2.699 3.757,4.349c1.049,1.651 1.574,3.652 1.574,6.003c0,1.714 -0.374,3.232 -1.123,4.554c-0.748,1.321 -1.791,2.349 -3.127,3.085c-1.337,0.735 -2.901,1.102 -4.694,1.102Z" style="fill:#fff;fill-rule:nonzero;"/>
    <path d="M153.587,138.688l7.136,-35.64l6.953,-0l7.113,35.64l-6.025,-0l-1.401,-8.226l-6.215,-0l-1.466,8.226l-6.095,-0Zm8.244,-12.381l4.827,-0l-2.425,-14.947l-2.402,14.947Z" style="fill:#fff;fill-rule:nonzero;"/>
    <path d="M186.821,139.152c-2.657,-0 -4.716,-0.479 -6.178,-1.438c-1.462,-0.958 -2.473,-2.331 -3.032,-4.118c-0.559,-1.787 -0.839,-3.927 -0.839,-6.42l0,-24.128l6.319,-0l0,24.847c0,1.117 0.08,2.17 0.24,3.159c0.16,0.988 0.509,1.781 1.047,2.378c0.537,0.597 1.352,0.896 2.443,0.896c1.12,-0 1.942,-0.299 2.465,-0.896c0.524,-0.597 0.861,-1.39 1.014,-2.378c0.152,-0.989 0.228,-2.042 0.228,-3.159l0,-24.847l6.32,-0l0,24.128c0,2.493 -0.283,4.633 -0.85,6.42c-0.566,1.787 -1.573,3.16 -3.02,4.118c-1.448,0.959 -3.5,1.438 -6.157,1.438Z" style="fill:#fff;fill-rule:nonzero;"/>
    <path d="M200.949,138.688l0,-35.64l6.471,-0l0,31.168l8.631,-0l0,4.472l-15.102,-0Z" style="fill:#fff;fill-rule:nonzero;"/>
    <path d="M221.002,138.688l0,-30.831l-5.687,-0l0,-4.809l17.76,-0l0,4.809l-5.579,-0l0,30.831l-6.494,-0Z" style="fill:#fff;fill-rule:nonzero;"/>
    <path d="M243.875,138.688l7.136,-35.64l6.953,-0l7.113,35.64l-6.025,-0l-1.401,-8.226l-6.215,-0l-1.466,8.226l-6.095,-0Zm8.244,-12.381l4.827,-0l-2.425,-14.947l-2.402,14.947Z" style="fill:#fff;fill-rule:nonzero;"/>
    <rect x="267.496" y="103.048" width="6.428" height="35.64" style="fill:#fff;"/>
    <path d="M278.257,138.688l0,-35.64l8.535,-0c2.391,-0 4.417,0.289 6.078,0.867c1.66,0.578 2.925,1.556 3.794,2.934c0.869,1.378 1.304,3.257 1.304,5.637c0,1.424 -0.131,2.704 -0.395,3.841c-0.263,1.137 -0.713,2.109 -1.351,2.917c-0.638,0.807 -1.515,1.44 -2.631,1.898l4.969,17.546l-6.522,-0l-4.278,-16.333l-3.032,-0l0,16.333l-6.471,-0Zm6.471,-20.397l2.051,-0c1.257,-0 2.257,-0.188 3.001,-0.562c0.743,-0.375 1.279,-0.961 1.606,-1.759c0.328,-0.798 0.491,-1.838 0.491,-3.121c0,-1.795 -0.328,-3.136 -0.985,-4.022c-0.656,-0.886 -1.917,-1.329 -3.782,-1.329l-2.382,-0l0,10.793Z" style="fill:#fff;fill-rule:nonzero;"/>
    <path d="M310.043,139.152c-2.145,-0 -3.933,-0.417 -5.365,-1.252c-1.432,-0.834 -2.516,-2.055 -3.25,-3.663c-0.734,-1.608 -1.152,-3.59 -1.254,-5.946l5.603,-1.096c0.058,1.397 0.226,2.622 0.504,3.674c0.277,1.052 0.704,1.865 1.279,2.439c0.575,0.574 1.334,0.861 2.278,0.861c1.048,-0 1.797,-0.317 2.245,-0.953c0.448,-0.635 0.672,-1.439 0.672,-2.409c0,-1.538 -0.359,-2.806 -1.078,-3.804c-0.718,-0.997 -1.657,-2.002 -2.817,-3.015l-4.485,-3.94c-1.264,-1.087 -2.27,-2.3 -3.016,-3.639c-0.747,-1.338 -1.12,-2.993 -1.12,-4.964c0,-2.823 0.824,-4.994 2.471,-6.515c1.648,-1.52 3.891,-2.281 6.729,-2.281c1.666,-0 3.056,0.256 4.172,0.766c1.116,0.51 2.004,1.219 2.662,2.125c0.658,0.907 1.147,1.94 1.466,3.098c0.319,1.159 0.522,2.387 0.608,3.685l-5.541,0.984c-0.058,-1.113 -0.177,-2.107 -0.358,-2.984c-0.18,-0.877 -0.514,-1.57 -1,-2.081c-0.486,-0.51 -1.201,-0.766 -2.145,-0.766c-0.975,-0 -1.716,0.319 -2.224,0.956c-0.507,0.638 -0.761,1.428 -0.761,2.37c0,1.207 0.251,2.196 0.754,2.968c0.503,0.772 1.218,1.57 2.146,2.394l4.438,3.895c1.455,1.249 2.708,2.699 3.757,4.349c1.049,1.651 1.574,3.652 1.574,6.003c0,1.714 -0.374,3.232 -1.123,4.554c-0.748,1.321 -1.791,2.349 -3.127,3.085c-1.337,0.735 -2.901,1.102 -4.694,1.102Z" style="fill:#fff;fill-rule:nonzero;"/>
    <path d="M331.581,139.152c-2.542,-0 -4.561,-0.469 -6.059,-1.408c-1.498,-0.938 -2.57,-2.284 -3.216,-4.037c-0.647,-1.753 -0.97,-3.825 -0.97,-6.217l0,-13.372c0,-2.408 0.327,-4.466 0.98,-6.175c0.654,-1.709 1.726,-3.019 3.216,-3.929c1.491,-0.91 3.507,-1.365 6.049,-1.365c2.557,-0 4.581,0.459 6.072,1.376c1.491,0.917 2.563,2.226 3.217,3.929c0.653,1.702 0.98,3.756 0.98,6.164l0,13.393c0,2.378 -0.327,4.439 -0.98,6.185c-0.654,1.746 -1.726,3.092 -3.217,4.038c-1.491,0.945 -3.515,1.418 -6.072,1.418Zm0,-4.779c1.063,-0 1.856,-0.237 2.379,-0.711c0.523,-0.475 0.872,-1.117 1.046,-1.925c0.174,-0.809 0.261,-1.706 0.261,-2.693l0,-16.415c0,-1.002 -0.087,-1.897 -0.261,-2.683c-0.174,-0.787 -0.523,-1.411 -1.046,-1.871c-0.523,-0.461 -1.316,-0.691 -2.379,-0.691c-1.032,-0 -1.814,0.23 -2.344,0.691c-0.53,0.46 -0.883,1.084 -1.057,1.871c-0.174,0.786 -0.261,1.681 -0.261,2.683l0,16.415c0,0.987 0.083,1.884 0.25,2.693c0.166,0.808 0.511,1.45 1.034,1.925c0.523,0.474 1.315,0.711 2.378,0.711Z" style="fill:#fff;fill-rule:nonzero;"/>
    <path d="M345.621,138.688l0,-35.64l14.613,-0l0,4.472l-8.142,-0l0,10.382l6.684,-0l0,4.542l-6.684,-0l0,16.244l-6.471,-0Z" style="fill:#fff;fill-rule:nonzero;"/>
    <path d="M366.378,138.688l0,-30.831l-5.687,-0l0,-4.809l17.76,-0l0,4.809l-5.579,-0l0,30.831l-6.494,-0Z" style="fill:#fff;fill-rule:nonzero;"/>
</svg>
